<?xml version="1.0" encoding="UTF-8" standalone="no"?>
<svg
   xmlns:osb="http://www.openswatchbook.org/uri/2009/osb"
   xmlns:dc="http://purl.org/dc/elements/1.1/"
   xmlns:cc="http://creativecommons.org/ns#"
   xmlns:rdf="http://www.w3.org/1999/02/22-rdf-syntax-ns#"
   xmlns:svg="http://www.w3.org/2000/svg"
   xmlns="http://www.w3.org/2000/svg"
   xmlns:sodipodi="http://sodipodi.sourceforge.net/DTD/sodipodi-0.dtd"
   xmlns:inkscape="http://www.inkscape.org/namespaces/inkscape"
   style="height: 512px; width: 512px;"
   viewBox="0 0 512 512"
   version="1.1"
   id="svg835"
   sodipodi:docname="stone-bridge.svg"
   inkscape:version="0.92.2 (5c3e80d, 2017-08-06)">
  <metadata
     id="metadata841">
    <rdf:RDF>
      <cc:Work
         rdf:about="">
        <dc:format>image/svg+xml</dc:format>
        <dc:type
           rdf:resource="http://purl.org/dc/dcmitype/StillImage" />
        <dc:title />
      </cc:Work>
    </rdf:RDF>
  </metadata>
  <defs
     id="defs839">
    <linearGradient
       id="linearGradient2516"
       osb:paint="solid">
      <stop
         style="stop-color:#005bff;stop-opacity:1;"
         offset="0"
         id="stop2514" />
    </linearGradient>
    <filter
       style="color-interpolation-filters:sRGB;"
       inkscape:label="Invert"
       id="filter3456">
      <feColorMatrix
         type="hueRotate"
         values="180"
         result="color1"
         id="feColorMatrix3452" />
      <feColorMatrix
         values="-1 0 0 0 1 0 -1 0 0 1 0 0 -1 0 1 -0.21 -0.72 -0.07 2 0 "
         result="color2"
         id="feColorMatrix3454" />
    </filter>
    <filter
       style="color-interpolation-filters:sRGB;"
       inkscape:label="Invert"
       id="filter3462">
      <feColorMatrix
         type="hueRotate"
         values="180"
         result="color1"
         id="feColorMatrix3458" />
      <feColorMatrix
         values="-1 0 0 0 1 0 -1 0 0 1 0 0 -1 0 1 -0.21 -0.72 -0.07 2 0 "
         result="color2"
         id="feColorMatrix3460" />
    </filter>
    <filter
       style="color-interpolation-filters:sRGB;"
       inkscape:label="Invert"
       id="filter3468">
      <feColorMatrix
         type="hueRotate"
         values="180"
         result="color1"
         id="feColorMatrix3464" />
      <feColorMatrix
         values="-1 0 0 0 1 0 -1 0 0 1 0 0 -1 0 1 -0.21 -0.72 -0.07 2 0 "
         result="color2"
         id="feColorMatrix3466" />
    </filter>
    <filter
       style="color-interpolation-filters:sRGB;"
       inkscape:label="Invert"
       id="filter3474">
      <feColorMatrix
         type="hueRotate"
         values="180"
         result="color1"
         id="feColorMatrix3470" />
      <feColorMatrix
         values="-1 0 0 0 1 0 -1 0 0 1 0 0 -1 0 1 -0.21 -0.72 -0.07 2 0 "
         result="color2"
         id="feColorMatrix3472" />
    </filter>
    <filter
       style="color-interpolation-filters:sRGB;"
       inkscape:label="Invert"
       id="filter3480">
      <feColorMatrix
         type="hueRotate"
         values="180"
         result="color1"
         id="feColorMatrix3476" />
      <feColorMatrix
         values="-1 0 0 0 1 0 -1 0 0 1 0 0 -1 0 1 -0.21 -0.72 -0.07 2 0 "
         result="color2"
         id="feColorMatrix3478" />
    </filter>
    <filter
       style="color-interpolation-filters:sRGB;"
       inkscape:label="Invert"
       id="filter3486">
      <feColorMatrix
         type="hueRotate"
         values="180"
         result="color1"
         id="feColorMatrix3482" />
      <feColorMatrix
         values="-1 0 0 0 1 0 -1 0 0 1 0 0 -1 0 1 -0.21 -0.72 -0.07 2 0 "
         result="color2"
         id="feColorMatrix3484" />
    </filter>
    <filter
       style="color-interpolation-filters:sRGB;"
       inkscape:label="Invert"
       id="filter3492">
      <feColorMatrix
         type="hueRotate"
         values="180"
         result="color1"
         id="feColorMatrix3488" />
      <feColorMatrix
         values="-1 0 0 0 1 0 -1 0 0 1 0 0 -1 0 1 -0.21 -0.72 -0.07 2 0 "
         result="color2"
         id="feColorMatrix3490" />
    </filter>
    <filter
       style="color-interpolation-filters:sRGB;"
       inkscape:label="Invert"
       id="filter3498">
      <feColorMatrix
         type="hueRotate"
         values="180"
         result="color1"
         id="feColorMatrix3494" />
      <feColorMatrix
         values="-1 0 0 0 1 0 -1 0 0 1 0 0 -1 0 1 -0.21 -0.72 -0.07 2 0 "
         result="color2"
         id="feColorMatrix3496" />
    </filter>
    <filter
       style="color-interpolation-filters:sRGB;"
       inkscape:label="Invert"
       id="filter3504">
      <feColorMatrix
         type="hueRotate"
         values="180"
         result="color1"
         id="feColorMatrix3500" />
      <feColorMatrix
         values="-1 0 0 0 1 0 -1 0 0 1 0 0 -1 0 1 -0.21 -0.72 -0.07 2 0 "
         result="color2"
         id="feColorMatrix3502" />
    </filter>
    <filter
       style="color-interpolation-filters:sRGB;"
       inkscape:label="Invert"
       id="filter3510">
      <feColorMatrix
         type="hueRotate"
         values="180"
         result="color1"
         id="feColorMatrix3506" />
      <feColorMatrix
         values="-1 0 0 0 1 0 -1 0 0 1 0 0 -1 0 1 -0.21 -0.72 -0.07 2 0 "
         result="color2"
         id="feColorMatrix3508" />
    </filter>
    <filter
       style="color-interpolation-filters:sRGB;"
       inkscape:label="Invert"
       id="filter3516">
      <feColorMatrix
         type="hueRotate"
         values="180"
         result="color1"
         id="feColorMatrix3512" />
      <feColorMatrix
         values="-1 0 0 0 1 0 -1 0 0 1 0 0 -1 0 1 -0.21 -0.72 -0.07 2 0 "
         result="color2"
         id="feColorMatrix3514" />
    </filter>
    <filter
       style="color-interpolation-filters:sRGB;"
       inkscape:label="Invert"
       id="filter3522">
      <feColorMatrix
         type="hueRotate"
         values="180"
         result="color1"
         id="feColorMatrix3518" />
      <feColorMatrix
         values="-1 0 0 0 1 0 -1 0 0 1 0 0 -1 0 1 -0.21 -0.72 -0.07 2 0 "
         result="color2"
         id="feColorMatrix3520" />
    </filter>
    <filter
       style="color-interpolation-filters:sRGB;"
       inkscape:label="Invert"
       id="filter3528">
      <feColorMatrix
         type="hueRotate"
         values="180"
         result="color1"
         id="feColorMatrix3524" />
      <feColorMatrix
         values="-1 0 0 0 1 0 -1 0 0 1 0 0 -1 0 1 -0.21 -0.72 -0.07 2 0 "
         result="color2"
         id="feColorMatrix3526" />
    </filter>
    <filter
       style="color-interpolation-filters:sRGB;"
       inkscape:label="Invert"
       id="filter3534">
      <feColorMatrix
         type="hueRotate"
         values="180"
         result="color1"
         id="feColorMatrix3530" />
      <feColorMatrix
         values="-1 0 0 0 1 0 -1 0 0 1 0 0 -1 0 1 -0.21 -0.72 -0.07 2 0 "
         result="color2"
         id="feColorMatrix3532" />
    </filter>
    <filter
       style="color-interpolation-filters:sRGB"
       inkscape:label="Invert"
       id="filter3534-6">
      <feColorMatrix
         type="hueRotate"
         values="180"
         result="color1"
         id="feColorMatrix3530-6" />
      <feColorMatrix
         values="-1 0 0 0 1 0 -1 0 0 1 0 0 -1 0 1 -0.21 -0.72 -0.07 2 0 "
         result="color2"
         id="feColorMatrix3532-0" />
    </filter>
  </defs>
  <sodipodi:namedview
     pagecolor="#ffffff"
     bordercolor="#666666"
     borderopacity="1"
     objecttolerance="10"
     gridtolerance="10"
     guidetolerance="10"
     inkscape:pageopacity="0"
     inkscape:pageshadow="2"
     inkscape:window-width="1920"
     inkscape:window-height="1001"
     id="namedview837"
     showgrid="false"
     inkscape:zoom="0.69916151"
     inkscape:cx="474.84615"
     inkscape:cy="281.83833"
     inkscape:window-x="-9"
     inkscape:window-y="-9"
     inkscape:window-maximized="1"
     inkscape:current-layer="layer9"
     showguides="true"
     inkscape:guide-bbox="true">
    <sodipodi:guide
       position="211.32456,94.398789"
       orientation="0,1"
       id="guide5587"
       inkscape:locked="false" />
  </sodipodi:namedview>
  <g
     inkscape:groupmode="layer"
     id="layer5"
     inkscape:label="Layer 2"
     style="display:none">
    <rect
       style="opacity:1;fill:#4d4d4d;fill-opacity:1;fill-rule:evenodd;stroke:#ffffff;stroke-width:12;stroke-linecap:round;stroke-linejoin:round;stroke-miterlimit:4;stroke-dasharray:none;stroke-opacity:1"
       id="rect1074"
       width="1056.8754"
       height="723.12524"
       x="-184.06825"
       y="-69.534302" />
  </g>
  <g
     inkscape:groupmode="layer"
     id="layer1"
     inkscape:label="Layer 1"
     style="display:none">
    <path
       style="display:inline;fill:none;fill-opacity:1;stroke:#00ffff;stroke-width:13;stroke-linecap:butt;stroke-linejoin:miter;stroke-miterlimit:4;stroke-dasharray:none;stroke-opacity:1"
       d="m 142.63422,416.80668 -62.674742,-0.22464 1.34785,-42.90637 15.27554,-21.79014 40.884602,16.17412 14.82628,2.69569 -7.63776,21.79014 z"
       id="path961"
       inkscape:connector-curvature="0" />
    <path
       style="fill:none;fill-opacity:1;stroke:#00ffff;stroke-width:13;stroke-linecap:butt;stroke-linejoin:miter;stroke-miterlimit:4;stroke-dasharray:none;stroke-opacity:1"
       d="m 103.52364,355.07363 c 0,-1.58845 1.27075,-9.68954 1.74729,-11.27799 0.47654,-1.58845 22.55598,-28.11555 22.55598,-28.11555 l 30.81592,22.07944 9.53069,3.81229 c 0,0 -4.2888,12.54875 -5.40072,12.86643 -1.11192,0.31769 -10.47905,16.31709 -10.47905,16.31709 l -4.61122,-0.75028"
       id="path970"
       inkscape:connector-curvature="0" />
    <path
       style="fill:none;fill-opacity:1;stroke:#00ffff;stroke-width:13;stroke-linecap:butt;stroke-linejoin:miter;stroke-miterlimit:4;stroke-dasharray:none;stroke-opacity:1"
       d="m 127.82691,315.68009 c -0.95307,-2.06498 -3.49459,-7.94225 -3.49459,-7.94225 l 39.87008,-35.58127 5.71842,-0.31768 14.61373,20.64984 12.54875,25.25635 -13.66066,11.27799 -12.70759,10.32491 -2.54153,2.22384"
       id="path972"
       inkscape:connector-curvature="0" />
    <path
       style="fill:none;fill-opacity:1;stroke:#00ffff;stroke-width:13;stroke-linecap:butt;stroke-linejoin:miter;stroke-miterlimit:4;stroke-dasharray:none;stroke-opacity:1"
       d="m 176.27462,280.09882 c 0,0 14.77257,-9.213 16.20218,-10.00723 1.4296,-0.79423 13.02528,-5.40073 13.81951,-5.40073 0.79423,0 14.29604,-0.15883 14.29604,-0.15883 l 5.55958,22.39713 6.98917,11.91337 -12.86644,6.3538 -16.67871,7.30686 -6.51265,5.24189"
       id="path974"
       inkscape:connector-curvature="0" />
    <path
       style="fill:none;fill-opacity:1;stroke:#00ffff;stroke-width:13;stroke-linecap:butt;stroke-linejoin:miter;stroke-miterlimit:4;stroke-dasharray:none;stroke-opacity:1"
       d="m 292.5491,262.94357 -8.41878,32.40438 -6.51263,6.83032 -21.12638,-3.81228 c 0,0 -14.45489,2.38267 -16.04335,2.06499 -1.58843,-0.3177 -7.30686,-1.58845 -7.30686,-1.58845 v 0"
       id="path976"
       inkscape:connector-curvature="0" />
    <path
       style="fill:none;fill-opacity:1;stroke:#00ffff;stroke-width:13;stroke-linecap:butt;stroke-linejoin:miter;stroke-miterlimit:4;stroke-dasharray:none;stroke-opacity:1"
       d="m 220.59235,264.53203 2.54152,-8.57764 7.62455,-6.83032 50.98923,-0.3177 7.62456,6.19496 3.17689,7.94224"
       id="path978"
       inkscape:connector-curvature="0" />
    <path
       style="fill:none;fill-opacity:1;stroke:#00ffff;stroke-width:13;stroke-linecap:butt;stroke-linejoin:miter;stroke-miterlimit:4;stroke-dasharray:none;stroke-opacity:1"
       d="m 281.74765,298.84253 2.85921,4.12996 c 0,0 28.75093,10.80146 29.54516,10.80146 0.79422,0 7.30686,-2.70036 7.30686,-2.70036 l 16.99641,-25.89174 -11.59568,-11.59567 -19.06139,-6.83032 -11.75453,-5.08305 -3.49459,1.27076"
       id="path980"
       inkscape:connector-curvature="0" />
    <path
       style="fill:none;fill-opacity:1;stroke:#00ffff;stroke-width:13;stroke-linecap:butt;stroke-linejoin:miter;stroke-miterlimit:4;stroke-dasharray:none;stroke-opacity:1"
       d="m 321.45888,311.07359 1.11192,6.51264 28.11555,22.23829 4.76535,-0.63538 30.49823,-21.76176 c 0,0 3.1769,-6.19494 2.06498,-7.7834 -1.11191,-1.58845 -23.98558,-21.9206 -23.98558,-21.9206 l -16.83756,-5.08303 -8.73648,2.5415"
       id="path982"
       inkscape:connector-curvature="0" />
    <path
       style="fill:none;fill-opacity:1;stroke:#00ffff;stroke-width:13;stroke-linecap:butt;stroke-linejoin:miter;stroke-miterlimit:4;stroke-dasharray:none;stroke-opacity:1"
       d="m 355.4517,339.18914 1.27076,7.94225 14.61373,20.01446 3.01806,0.47654 c 0,0 36.05779,-12.86645 34.78704,-15.40797 -1.27076,-2.54151 -13.02529,-22.39713 -13.97835,-23.3502 -0.95308,-0.95307 -9.21301,-11.43684 -9.21301,-11.43684"
       id="path984"
       inkscape:connector-curvature="0" />
    <path
       style="fill:none;fill-opacity:1;stroke:#00ffff;stroke-width:13;stroke-linecap:butt;stroke-linejoin:miter;stroke-miterlimit:4;stroke-dasharray:none;stroke-opacity:1"
       d="m 374.35425,367.62239 -0.95307,6.35379 11.27799,43.20582 H 437.098 c 0,0 0.31769,-12.23106 -0.31769,-14.1372 -0.63539,-1.90613 -8.10109,-32.5632 -9.213,-34.15166 -1.11192,-1.58844 -10.64261,-19.37908 -10.64261,-19.37908 l -6.98919,3.1769"
       id="path986"
       inkscape:connector-curvature="0" />
    <path
       style="fill:none;fill-opacity:1;stroke:#00ffff;stroke-width:13;stroke-linecap:butt;stroke-linejoin:miter;stroke-miterlimit:4;stroke-dasharray:none;stroke-opacity:1"
       d="M 79.959478,416.58204 H 3.8062934 V 333.01571 H 66.930319 l 6.514575,-4.49281 3.818895,3.36961 36.616421,0.67392"
       id="path988"
       inkscape:connector-curvature="0" />
    <path
       style="fill:none;fill-opacity:1;stroke:#00ffff;stroke-width:13;stroke-linecap:butt;stroke-linejoin:miter;stroke-miterlimit:4;stroke-dasharray:none;stroke-opacity:1"
       d="M 81.307328,373.67567 3.1323715,373.45103"
       id="path990"
       inkscape:connector-curvature="0" />
    <path
       style="fill:none;fill-opacity:1;stroke:#00ffff;stroke-width:13;stroke-linecap:butt;stroke-linejoin:miter;stroke-miterlimit:4;stroke-dasharray:none;stroke-opacity:1"
       d="m 70.524575,373.67567 -0.224653,42.90637"
       id="path992"
       inkscape:connector-curvature="0" />
    <path
       style="fill:none;fill-opacity:1;stroke:#00ffff;stroke-width:13;stroke-linecap:butt;stroke-linejoin:miter;stroke-miterlimit:4;stroke-dasharray:none;stroke-opacity:1"
       d="m 5.1192039,333.07361 -0.7942245,-1.90614 v -39.63181 l 38.5993196,-0.47653 2.462096,1.50902 61.234715,-1.19134 2.38268,-2.06497 c 0,0 0.79421,2.5415 3.09747,2.46209 2.30326,-0.0794 29.70401,0 29.70401,0"
       id="path994"
       inkscape:connector-curvature="0" />
    <path
       style="fill:none;fill-opacity:1;stroke:#00ffff;stroke-width:13;stroke-linecap:butt;stroke-linejoin:miter;stroke-miterlimit:4;stroke-dasharray:none;stroke-opacity:1"
       d="M 73.444894,328.5229 V 292.40931"
       id="path998"
       inkscape:connector-curvature="0" />
    <path
       style="fill:none;fill-opacity:1;stroke:#00ffff;stroke-width:13;stroke-linecap:butt;stroke-linejoin:miter;stroke-miterlimit:4;stroke-dasharray:none;stroke-opacity:1"
       d="M 4.3249794,291.53566 V 203.62269 H 84.452288"
       id="path1000"
       inkscape:connector-curvature="0" />
    <path
       style="fill:none;fill-opacity:1;stroke:#00ffff;stroke-width:13;stroke-linecap:butt;stroke-linejoin:miter;stroke-miterlimit:4;stroke-dasharray:none;stroke-opacity:1"
       d="M 4.5925348,249.11242 H 86.361725 v -44.70349 l -1.909437,-0.78624"
       id="path1002"
       inkscape:connector-curvature="0" />
    <path
       style="fill:none;fill-opacity:1;stroke:#00ffff;stroke-width:13;stroke-linecap:butt;stroke-linejoin:miter;stroke-miterlimit:4;stroke-dasharray:none;stroke-opacity:1"
       d="M 86.361725,249.11242 H 109.3874 l -0.38361,40.19942"
       id="path1004"
       inkscape:connector-curvature="0" />
    <path
       style="fill:none;fill-opacity:1;stroke:#00ffff;stroke-width:13;stroke-linecap:butt;stroke-linejoin:miter;stroke-miterlimit:4;stroke-dasharray:none;stroke-opacity:1"
       d="m 42.924299,291.05913 0.08179,-35.88141 4.268174,-5.39137"
       id="path1006"
       inkscape:connector-curvature="0" />
    <path
       style="fill:none;fill-opacity:1;stroke:#00ffff;stroke-width:13;stroke-linecap:butt;stroke-linejoin:miter;stroke-miterlimit:4;stroke-dasharray:none;stroke-opacity:1"
       d="m 109.3874,249.11242 36.05482,-0.56159 0.22464,-33.92074 -59.192798,-0.22465"
       id="path1008"
       inkscape:connector-curvature="0" />
    <path
       style="fill:none;fill-opacity:1;stroke:#00ffff;stroke-width:13;stroke-linecap:butt;stroke-linejoin:miter;stroke-miterlimit:4;stroke-dasharray:none;stroke-opacity:1"
       d="m 4.3678948,214.29312 c 0.5616015,-0.22463 82.1061672,0.11233 82.1061672,0.11233"
       id="path1010"
       inkscape:connector-curvature="0" />
    <path
       style="fill:none;fill-opacity:1;stroke:#00ffff;stroke-width:13;stroke-linecap:butt;stroke-linejoin:miter;stroke-miterlimit:4;stroke-dasharray:none;stroke-opacity:1"
       d="m 86.361725,204.40893 1.460177,-1.34784 h 57.171038 l 0.67392,11.569"
       id="path1012"
       inkscape:connector-curvature="0" />
    <path
       style="fill:none;fill-opacity:1;stroke:#00ffff;stroke-width:13;stroke-linecap:butt;stroke-linejoin:miter;stroke-miterlimit:4;stroke-dasharray:none;stroke-opacity:1"
       d="m 145.77918,247.20299 65.93204,-0.56161"
       id="path1014"
       inkscape:connector-curvature="0" />
    <path
       style="fill:none;fill-opacity:1;stroke:#00ffff;stroke-width:13;stroke-linecap:butt;stroke-linejoin:miter;stroke-miterlimit:4;stroke-dasharray:none;stroke-opacity:1"
       d="m 177.11655,247.76457 0.5616,31.44971"
       id="path1016"
       inkscape:connector-curvature="0" />
    <path
       style="fill:none;fill-opacity:1;stroke:#00ffff;stroke-width:13;stroke-linecap:butt;stroke-linejoin:miter;stroke-miterlimit:4;stroke-dasharray:none;stroke-opacity:1"
       d="m 145.32991,205.19518 1.34784,-1.79713 h 65.37043 l -0.11233,10.78276 -66.269,-1.01089"
       id="path1018"
       inkscape:connector-curvature="0" />
    <path
       style="fill:none;fill-opacity:1;stroke:#00ffff;stroke-width:13;stroke-linecap:butt;stroke-linejoin:miter;stroke-miterlimit:4;stroke-dasharray:none;stroke-opacity:1"
       d="m 212.49746,204.52126 2.13408,-1.68482 h 79.74743 l 1.79714,3.2573 -0.11233,6.96386 -16.96038,1.57249 -65.25811,-0.22465 -1.90945,-0.22463"
       id="path1020"
       inkscape:connector-curvature="0" />
    <path
       style="fill:none;fill-opacity:1;stroke:#00ffff;stroke-width:13;stroke-linecap:butt;stroke-linejoin:miter;stroke-miterlimit:4;stroke-dasharray:none;stroke-opacity:1"
       d="m 211.71122,246.64138 1.90945,1.68479 17.13775,0.7979"
       id="path1022"
       inkscape:connector-curvature="0" />
    <path
       style="fill:none;fill-opacity:1;stroke:#00ffff;stroke-width:13;stroke-linecap:butt;stroke-linejoin:miter;stroke-miterlimit:4;stroke-dasharray:none;stroke-opacity:1"
       d="m 281.74765,248.80637 c 0,0 13.60277,0.45741 13.86685,0 0.26409,-0.4574 0,-35.63645 0,-35.63645"
       id="path1026"
       inkscape:connector-curvature="0" />
    <path
       style="fill:none;fill-opacity:1;stroke:#00ffff;stroke-width:13;stroke-linecap:butt;stroke-linejoin:miter;stroke-miterlimit:4;stroke-dasharray:none;stroke-opacity:1"
       d="M 211.71122,246.64138 V 213.95617"
       id="path1028"
       inkscape:connector-curvature="0" />
    <path
       style="fill:none;fill-opacity:1;stroke:#00ffff;stroke-width:13;stroke-linecap:butt;stroke-linejoin:miter;stroke-miterlimit:4;stroke-dasharray:none;stroke-opacity:1"
       d="m 506.19554,203.69441 v 88.95316 h -106.1084 l -1.90615,-1.90614 -5.40074,3.17691 h -21.9206"
       id="path1030"
       inkscape:connector-curvature="0" />
    <path
       style="fill:none;fill-opacity:1;stroke:#00ffff;stroke-width:13;stroke-linecap:butt;stroke-linejoin:miter;stroke-miterlimit:4;stroke-dasharray:none;stroke-opacity:1"
       d="m 296.04369,248.17099 h 101.50192 l 0.63538,42.57044"
       id="path1032"
       inkscape:connector-curvature="0" />
    <path
       style="fill:none;fill-opacity:1;stroke:#00ffff;stroke-width:13;stroke-linecap:butt;stroke-linejoin:miter;stroke-miterlimit:4;stroke-dasharray:none;stroke-opacity:1"
       d="m 315.89931,248.96522 v 20.01445"
       id="path1034"
       inkscape:connector-curvature="0" />
    <path
       style="fill:none;fill-opacity:1;stroke:#00ffff;stroke-width:13;stroke-linecap:butt;stroke-linejoin:miter;stroke-miterlimit:4;stroke-dasharray:none;stroke-opacity:1"
       d="M 397.54561,248.17099 H 505.719"
       id="path1036"
       inkscape:connector-curvature="0" />
    <path
       style="fill:none;fill-opacity:1;stroke:#00ffff;stroke-width:13;stroke-linecap:butt;stroke-linejoin:miter;stroke-miterlimit:4;stroke-dasharray:none;stroke-opacity:1"
       d="m 455.20631,248.48868 v 43.68236"
       id="path1038"
       inkscape:connector-curvature="0" />
    <path
       style="fill:none;fill-opacity:1;stroke:#00ffff;stroke-width:13;stroke-linecap:butt;stroke-linejoin:miter;stroke-miterlimit:4;stroke-dasharray:none;stroke-opacity:1"
       d="m 296.17611,206.09374 0.50544,-3.14497 h 65.81972 c 0,0 0.67391,9.88419 0.33695,10.05267 -0.33695,0.16848 -13.47844,2.07792 -13.47844,2.07792 h -53.46447"
       id="path1040"
       inkscape:connector-curvature="0" />
    <path
       style="fill:none;fill-opacity:1;stroke:#00ffff;stroke-width:13;stroke-linecap:butt;stroke-linejoin:miter;stroke-miterlimit:4;stroke-dasharray:none;stroke-opacity:1"
       d="m 362.89439,203.56654 h 53.85759 v 11.06355 h -53.29599 l -0.28081,-1.62865"
       id="path1042"
       inkscape:connector-curvature="0" />
    <path
       style="fill:none;fill-opacity:1;stroke:#00ffff;stroke-width:13;stroke-linecap:butt;stroke-linejoin:miter;stroke-miterlimit:4;stroke-dasharray:none;stroke-opacity:1"
       d="m 416.75198,203.56654 4.21201,-0.61777 h 84.80186 l 0.42969,0.74564"
       id="path1044"
       inkscape:connector-curvature="0" />
    <path
       style="fill:none;fill-opacity:1;stroke:#00ffff;stroke-width:13;stroke-linecap:butt;stroke-linejoin:miter;stroke-miterlimit:4;stroke-dasharray:none;stroke-opacity:1"
       d="m 416.75198,214.63009 h 88.90155"
       id="path1046"
       inkscape:connector-curvature="0" />
    <path
       style="fill:none;fill-opacity:1;stroke:#00ffff;stroke-width:13;stroke-linecap:butt;stroke-linejoin:miter;stroke-miterlimit:4;stroke-dasharray:none;stroke-opacity:1"
       d="m 418.71759,215.19169 v 33.02216"
       id="path1048"
       inkscape:connector-curvature="0" />
    <path
       style="fill:none;fill-opacity:1;stroke:#00ffff;stroke-width:13;stroke-linecap:butt;stroke-linejoin:miter;stroke-miterlimit:4;stroke-dasharray:none;stroke-opacity:1"
       d="m 364.80383,214.96704 v 33.02218"
       id="path1052"
       inkscape:connector-curvature="0" />
    <path
       style="fill:none;fill-opacity:1;stroke:#00ffff;stroke-width:13;stroke-linecap:butt;stroke-linejoin:miter;stroke-miterlimit:4;stroke-dasharray:none;stroke-opacity:1"
       d="m 506.19554,292.64757 0.63538,2.38267 V 415.7524"
       id="path1054"
       inkscape:connector-curvature="0" />
    <path
       style="fill:none;fill-opacity:1;stroke:#00ffff;stroke-width:13;stroke-linecap:butt;stroke-linejoin:miter;stroke-miterlimit:4;stroke-dasharray:none;stroke-opacity:1"
       d="m 437.098,417.182 h 69.73292 l 0.0397,-2.18412"
       id="path1056"
       inkscape:connector-curvature="0" />
    <path
       style="fill:none;fill-opacity:1;stroke:#00ffff;stroke-width:13;stroke-linecap:butt;stroke-linejoin:miter;stroke-miterlimit:4;stroke-dasharray:none;stroke-opacity:1"
       d="m 428.82642,292.91735 v 39.31212 l 5.05441,2.35872 h 73.00822"
       id="path1058"
       inkscape:connector-curvature="0" />
    <path
       style="fill:none;fill-opacity:1;stroke:#00ffff;stroke-width:13;stroke-linecap:butt;stroke-linejoin:miter;stroke-miterlimit:4;stroke-dasharray:none;stroke-opacity:1"
       d="m 398.72456,333.57731 h 26.17064 l 3.93122,-1.34784"
       id="path1060"
       inkscape:connector-curvature="0" />
    <path
       style="fill:none;fill-opacity:1;stroke:#00ffff;stroke-width:13;stroke-linecap:butt;stroke-linejoin:miter;stroke-miterlimit:4;stroke-dasharray:none;stroke-opacity:1"
       d="m 429.05105,373.90031 h 77.838"
       id="path1062"
       inkscape:connector-curvature="0" />
    <path
       style="fill:none;fill-opacity:1;stroke:#00ffff;stroke-width:13;stroke-linecap:butt;stroke-linejoin:miter;stroke-miterlimit:4;stroke-dasharray:none;stroke-opacity:1"
       d="m 461.84859,335.03748 v 38.86283"
       id="path1064"
       inkscape:connector-curvature="0" />
  </g>
  <g
     inkscape:groupmode="layer"
     id="layer9"
     inkscape:label="puente"
     style="display:inline">
    <path
       style="display:inline;fill:#ffffff;fill-opacity:1;stroke:#ffffff;stroke-width:1px;stroke-linecap:butt;stroke-linejoin:miter;stroke-opacity:1"
       d="M 105.25977 420.72461 C 106.47321 416.31098 107.74794 412.03708 109.08984 407.93164 C 110.47926 403.68087 111.93527 399.59241 113.45117 395.66016 C 114.96708 391.7279 116.54285 387.95201 118.17383 384.32617 C 119.8048 380.70034 121.48998 377.22408 123.22461 373.89258 C 124.95923 370.56107 126.74346 367.37349 128.57031 364.32422 C 130.39717 361.27495 132.26812 358.36506 134.17578 355.58594 C 136.08344 352.80681 138.02881 350.15975 140.00586 347.63867 C 141.98291 345.1176 143.99037 342.72238 146.02539 340.44727 C 148.06041 338.17215 150.12156 336.01586 152.20312 333.97461 C 154.28469 331.93336 156.38722 330.00698 158.50391 328.1875 C 160.6206 326.36802 162.75218 324.65668 164.89258 323.04688 C 167.03297 321.43707 169.18131 319.92784 171.33398 318.51562 C 175.63934 315.6912 179.95817 313.25117 184.24414 311.14453 C 188.53011 309.03789 192.78377 307.26489 196.95898 305.7793 C 201.1342 304.2937 205.23198 303.09411 209.20508 302.13281 C 213.17817 301.17152 217.02742 300.44975 220.70703 299.91602 C 224.38664 299.38228 227.89665 299.03691 231.19141 298.83398 C 234.48616 298.63106 237.56428 298.57042 240.38281 298.60156 C 246.01989 298.66386 250.61483 299.0975 253.79883 299.51562 C 256.98283 299.93375 258.75586 300.33594 258.75586 300.33594 L 282.90039 304.00195 C 282.90039 304.00195 319.43733 316.51828 320.32227 317.15039 C 320.79793 317.49015 330.02217 325.15298 339.04297 332.6582 C 339.13647 332.50486 339.19517 332.38938 339.20898 332.32031 C 339.43361 331.19712 345.72461 311.20508 345.72461 311.20508 L 349.09375 294.13281 L 346.84766 275.03711 L 344.15234 263.35547 L 328.87695 282.00195 C 328.87695 282.00195 324.13786 282.80058 326.17969 279.75586 C 328.22151 276.71114 330.00003 244.93568 329.77539 244.03711 C 329.55076 243.13856 328.42783 221.12327 327.75391 219.55078 C 327.37595 218.66888 326.00826 213.7801 324.64258 209.40039 L 317.54492 209.40039 L 316.29297 209.40039 L 3.1503906 209.40039 L 3.1503906 420.72461 L 105.25977 420.72461 z "
       id="path1162" />
    <path
       style="display:inline;fill:#ffffff;fill-opacity:1;stroke:#ffffff;stroke-width:1px;stroke-linecap:butt;stroke-linejoin:miter;stroke-opacity:1"
       d="m 246.95913,304.4746 1.11719,-0.58593 1.5664,0.35156 22.68555,-1.98242 c 0,0 -1.77303,-0.40219 -4.95703,-0.82032 -3.184,-0.41812 -7.77894,-0.85176 -13.41602,-0.91406 -2.81853,-0.0311 -5.89665,0.0295 -9.1914,0.23242 -3.29476,0.20293 -6.80477,0.5483 -10.48438,1.08204 -3.67961,0.53373 -7.52886,1.2555 -11.50195,2.21679 -3.9731,0.9613 -8.07088,2.16089 -12.2461,3.64649 -4.17521,1.48559 -8.42887,3.25859 -12.71484,5.36523 -4.28597,2.10664 -8.6048,4.54667 -12.91016,7.37109 -2.15267,1.41222 -4.30101,2.92145 -6.4414,4.53126 -2.1404,1.6098 -4.27198,3.32114 -6.38867,5.14062 -2.11669,1.81948 -4.21922,3.74586 -6.30079,5.78711 -2.08156,2.04125 -4.14271,4.19754 -6.17773,6.47266 -2.03502,2.27511 -4.04248,4.67033 -6.01953,7.1914 -1.97705,2.52108 -3.92242,5.16814 -5.83008,7.94727 -1.90766,2.77912 -3.77861,5.68901 -5.60547,8.73828 -1.82685,3.04927 -3.61108,6.23685 -5.3457,9.56836 -1.73463,3.3315 -3.41981,6.80776 -5.05078,10.43359 -1.63098,3.62584 -3.20675,7.40173 -4.72266,11.33399 -1.5159,3.93225 -2.97191,8.02071 -4.36133,12.27148 -1.3419,4.10544 -2.61663,8.37934 -3.83007,12.79297 h 35.68359 3.93359 l 1.8711,-20.0332 5.50976,-23.23243 16.99219,-31.48632 31.09961,-26.67383 32.36328,-16.6875 z"
       id="path1160"
       inkscape:connector-curvature="0" />
    <path
       style="display:inline;fill:#ffffff;fill-opacity:1;stroke:#ffffff;stroke-width:1px;stroke-linecap:butt;stroke-linejoin:miter;stroke-opacity:1"
       d="m 359.35547,352.0957 -4.77344,-6.50195 c 0,0 -7.77691,-6.47751 -15.53906,-12.93555 -1.42687,2.33999 -11.51367,13.81446 -11.51367,13.81446 l -17.52344,9.66015 -15.5,2.47071 -15.5,-2.91993 -14.82617,-14.60156 -15.24467,-23.94691 c -13.76367,6.72755 -12.01123,1.73306 -30.13193,15.86702 l 6.64613,11.37677 8.89648,18.90234 -0.31836,16.36133 -2.38281,9.37109 -6.19531,8.73633 -7.94141,7.4668 -10.48437,8.09961 -19.22071,9.84961 7.78321,0.17773 21.92773,4.33984 19.52539,-3.27929 16.23242,2.04492 25.70508,-4.51758 33.04297,4.09375 5.71875,-12.54883 11.4375,-14.13867 12.54883,-16.83594 17.47266,-29.86328 z"
       id="path1158"
       inkscape:connector-curvature="0"
       sodipodi:nodetypes="ccccccccccccccccccccccccccccc" />
    <path
       style="display:inline;fill:#ffffff;fill-opacity:1;stroke:#ffffff;stroke-width:1px;stroke-linecap:butt;stroke-linejoin:miter;stroke-opacity:1"
       d="M 343.24023 209.40039 L 354.58984 219.36719 L 368.88672 238.11133 L 378.89453 260.03125 L 380.95898 266.38477 L 365.70898 257.9668 C 365.70898 257.9668 370.47461 274.16805 370.47461 275.59766 C 370.47461 277.02726 372.22266 297.04297 372.22266 297.04297 L 369.36328 317.85156 L 359.35547 352.0957 L 372.69922 370.26953 L 379.28711 395.66797 L 381.13086 420.72461 L 508.36523 420.72461 L 508.39844 209.40039 L 343.24023 209.40039 z "
       id="path1156" />
    <path
       style="display:inline;fill:#ffffff;fill-opacity:1;stroke:#ffffff;stroke-width:1px;stroke-linecap:butt;stroke-linejoin:miter;stroke-opacity:1"
       d="M 316.9707 192.36914 C 316.9707 192.36914 320.56426 200.90607 321.91211 202.25391 C 322.50404 202.84584 323.57316 205.97077 324.64258 209.40039 L 343.24023 209.40039 L 341.56445 207.92969 L 330.44531 198.40039 L 316.9707 192.36914 z "
       id="path5589-7" />
  </g>
  <g
     inkscape:groupmode="layer"
     id="layer3"
     inkscape:label="ancla"
     style="display:inline">
    <g
       id="g2565"
       transform="matrix(1.7623815,0,0,1.7623815,-169.03852,-65.34025)"
       style="filter:url(#filter3528)">
      <path
         sodipodi:nodetypes="ccccccscccccccccccccccccccc"
         inkscape:connector-curvature="0"
         id="path1071"
         d="M 203.625,146.875 C 203.25,146.375 189.5,124.5 189.5,124.5 l 4.625,-8.25 1,-9.625 -2.75,-7.750001 -4.5,-5.125 c 0,0 -7.125,-4.125 -7.625,-4.125 -0.5,0 -8.625,-1.875 -8.625,-1.875 l -10,2 -5,3.375 -5.75,6.625 -2.125,9.500001 1.375,6.625 3,5.5 1.5,2.5 -0.75,1.5 -4.125,0.25 -3.75,4.125 -0.125,6.875 v 10.25 l 20.38348,0.87662 -0.38348,-17.87662 3.625,1.75 3.875,-0.625 4.25,8.75 3.75,7 z"
         style="fill:none;fill-opacity:1;fill-rule:evenodd;stroke:#000000;stroke-width:1px;stroke-linecap:butt;stroke-linejoin:miter;stroke-opacity:1" />
      <path
         sodipodi:nodetypes="cccccccccc"
         inkscape:connector-curvature="0"
         id="path1073"
         d="m 155.125,138.625 3,1.125 0.875,-4.625 -3.875,1 -2.5,-2.125 -1.25,3.25 0.375,2.375 2.625,0.625 -0.25,-1.75 z"
         style="fill:none;fill-opacity:1;fill-rule:evenodd;stroke:#000000;stroke-width:1px;stroke-linecap:butt;stroke-linejoin:miter;stroke-opacity:1" />
      <path
         sodipodi:nodetypes="cccccccccccccc"
         inkscape:connector-curvature="0"
         id="path1075"
         d="m 162.625,114 4.25,1.125 1.25,4.375 h 5 l 5.625,-3.625 2.75,-3.875 -0.25,-5 -1.875,-5.125 -5,-3.125001 -5.625,-0.125 -5.375,2.875001 -2.75,3.75 -0.625,4.625 z"
         style="fill:none;fill-opacity:1;fill-rule:evenodd;stroke:#000000;stroke-width:1px;stroke-linecap:butt;stroke-linejoin:miter;stroke-opacity:1" />
      <path
         inkscape:connector-curvature="0"
         id="path2556"
         d="m 168.125,119.5 1.375,12.125"
         style="fill:none;stroke:#000000;stroke-width:1px;stroke-linecap:butt;stroke-linejoin:miter;stroke-opacity:1" />
      <path
         inkscape:connector-curvature="0"
         id="path2558"
         d="m 152.625,134 -2.875,-8.375"
         style="fill:none;stroke:#000000;stroke-width:1px;stroke-linecap:butt;stroke-linejoin:miter;stroke-opacity:1" />
    </g>
    <path
       style="fill:#000000;fill-opacity:1;fill-rule:evenodd;stroke:#000000;stroke-width:2.40698361;stroke-linecap:round;stroke-linejoin:round;stroke-miterlimit:4;stroke-dasharray:none;stroke-opacity:1;filter:url(#filter3522)"
       d="m 138.12099,165.83977 c -1.97,-0.0962 -4.08149,-0.22445 -4.69219,-0.28515 l -1.11036,-0.11038 2.8e-4,-5.31715 c 1.6e-4,-2.92443 0.043,-7.116 0.0952,-9.31461 l 0.0949,-3.99748 1.65851,-1.83511 c 0.91218,-1.00932 1.69852,-1.78938 1.7474,-1.73346 0.0489,0.0559 0.67639,1.82633 1.39443,3.93423 l 1.30553,3.83255 h -0.36292 c -0.36253,0 -0.36292,0.001 -0.33952,1.25364 0.0128,0.68951 -0.0494,1.44705 -0.13849,1.68345 -0.0891,0.2364 -0.22371,0.59101 -0.29926,0.788 -0.0958,0.25 -0.0588,0.84495 0.12294,1.96972 0.14316,0.88633 0.28743,1.63866 0.32061,1.67184 0.083,0.083 4.20447,1.07113 4.25606,1.0204 0.0228,-0.0225 -0.0281,-0.47626 -0.11313,-1.0085 -0.0851,-0.53224 -0.13242,-0.98988 -0.10534,-1.01697 0.0271,-0.0271 0.98062,0.30298 2.11894,0.7335 1.14576,0.43333 2.09136,0.71815 2.11827,0.63802 0.0267,-0.0797 0.14442,-0.24056 0.26151,-0.35766 0.13553,-0.13552 0.2002,-0.43401 0.17793,-0.82126 -0.0193,-0.33459 0.17824,-1.72235 0.43884,-3.0839 0.26059,-1.36153 0.44632,-2.50301 0.41272,-2.5366 -0.0336,-0.0336 -0.54216,0.0638 -1.13017,0.21652 -0.78489,0.20382 -1.55869,0.27827 -2.91094,0.28007 -1.70422,0.002 -1.87017,-0.0217 -2.22073,-0.31991 -0.27333,-0.23256 -0.36623,-0.43211 -0.33353,-0.71636 0.0414,-0.35971 0.003,-0.39401 -0.42982,-0.39414 l -0.47515,-1.5e-4 -1.4623,-4.25653 c -0.80426,-2.34109 -1.43687,-4.28197 -1.40578,-4.31304 0.0311,-0.0311 0.89865,-0.0495 1.92793,-0.041 1.1669,0.009 1.87142,-0.0386 1.87142,-0.12828 0,-0.0791 0.0954,-0.14379 0.212,-0.14379 0.1166,0 0.34356,-0.25789 0.50437,-0.57309 0.1608,-0.3152 0.38099,-0.5731 0.48931,-0.5731 0.12696,0 0.2175,-0.21549 0.25478,-0.60633 0.0503,-0.5276 -0.0408,-0.77314 -0.70132,-1.891 -0.41753,-0.70658 -0.75914,-1.43305 -0.75914,-1.6144 0,-0.18627 -0.0868,-0.32972 -0.19951,-0.32972 -0.11233,0 -0.92401,-1.33356 -1.85827,-3.05329 l -1.65877,-3.05328 -0.77068,-3.68259 -0.77067,-3.68259 0.9078,-4.04541 c 0.4993,-2.22497 1.01572,-4.52894 1.14761,-5.11995 0.3519,-1.57683 0.52504,-1.86254 1.12872,-1.86254 0.47669,0 0.49777,-0.022 0.49777,-0.51971 0,-0.43602 0.16042,-0.70713 0.99615,-1.68346 0.54787,-0.64006 1.20873,-1.3933 1.46855,-1.67386 0.25981,-0.28056 0.71848,-0.81247 1.01926,-1.182 0.30077,-0.36954 0.63926,-0.67188 0.75218,-0.67188 0.1129,0 0.20532,-0.1163 0.20532,-0.25844 0,-0.32367 0.86115,-1.17429 1.18882,-1.17429 0.13415,0 0.24391,-0.0609 0.24391,-0.13539 0,-0.0745 0.36509,-0.39683 0.81132,-0.71636 0.65403,-0.46834 0.93365,-0.58098 1.44225,-0.58098 0.60375,0 0.62896,-0.017 0.58558,-0.394 -0.0366,-0.31798 0.0515,-0.45534 0.45612,-0.71189 0.2758,-0.17484 0.61429,-0.31991 0.75219,-0.32237 0.13789,-0.002 0.25072,-0.0903 0.25072,-0.19517 0,-0.10487 0.14506,-0.26654 0.32237,-0.35924 0.1773,-0.0927 2.80844,-0.66772 5.84697,-1.27784 l 5.52463,-1.109307 1.9972,0.4647 c 1.09846,0.25558 3.25442,0.726087 4.79103,1.045587 2.62243,0.54525 2.90808,0.63737 4.65637,1.50157 3.33186,1.64697 6.71205,3.65745 7.34168,4.36669 3.43945,3.87439 4.19178,4.80308 4.19178,5.17446 0,0.24633 0.0861,0.40939 0.23135,0.43849 0.16052,0.0322 0.59804,1.07685 1.42945,3.41323 0.65896,1.85181 1.19958,3.4376 1.20138,3.524 0.002,0.0864 0.10659,0.3643 0.23301,0.61757 0.2157,0.4324 0.19525,0.79026 -0.33517,5.86399 l -0.5649,5.40349 -1.51431,2.71857 c -0.89303,1.60323 -1.63723,2.77661 -1.81393,2.86 -0.19458,0.0918 -0.29961,0.27644 -0.29961,0.52655 0,0.21181 -0.38683,1.0665 -0.85964,1.8993 -0.4728,0.83281 -0.85963,1.58021 -0.85963,1.66089 0,0.0807 1.01545,1.75911 2.25655,3.72981 1.24109,1.97071 3.23869,5.14486 4.4391,7.05366 1.20041,1.90881 2.18363,3.58339 2.18491,3.72129 0.001,0.13791 0.0922,0.25073 0.20194,0.25073 0.1098,0 0.23577,0.0943 0.28002,0.20963 0.0443,0.1153 0.36492,0.6472 0.71263,1.18201 1.46551,2.25406 1.72939,2.70075 1.69593,2.87072 -0.0194,0.0985 0.0262,0.1791 0.10143,0.1791 0.0752,0 0.41269,0.43519 0.75,0.96709 0.45316,0.71462 0.60327,1.08865 0.57494,1.43273 -0.0331,0.40283 0.007,0.46567 0.29503,0.4659 0.54636,4.2e-4 1.12135,1.05486 1.12135,2.0564 v 0.80879 h -11.37266 c -12.62963,0 -11.80152,0.0669 -11.71413,-0.9473 0.0352,-0.40831 -0.005,-0.48543 -0.25364,-0.48543 -0.4033,0 -1.15923,-1.49219 -1.15923,-2.28827 0,-0.50295 -0.0415,-0.57723 -0.32236,-0.57752 -0.46056,-4.3e-4 -1.11037,-1.27469 -1.11037,-2.17733 0,-0.61838 -0.0289,-0.67217 -0.38366,-0.71409 -0.55633,-0.0658 -1.0397,-1.06858 -1.04503,-2.16813 -0.003,-0.82375 -0.008,-0.83281 -0.39804,-0.788 -0.34767,0.04 -0.43401,-0.0388 -0.73429,-0.67103 -0.24421,-0.51412 -0.33229,-0.92872 -0.31196,-1.46855 0.027,-0.71856 0.0119,-0.75218 -0.33785,-0.75218 -0.51125,0 -1.08735,-1.13613 -1.08735,-2.14432 0,-0.67797 -0.0219,-0.72114 -0.36633,-0.72114 -0.31792,0 -0.43318,-0.14675 -0.87206,-1.11036 -0.27815,-0.6107 -0.52246,-1.12732 -0.54291,-1.14803 -0.0205,-0.0207 -0.96584,0.11484 -2.10086,0.30124 -1.86912,0.30695 -2.07311,0.31725 -2.16381,0.10935 -0.0856,-0.19644 -1.41069,-11.65392 -1.40592,-12.15707 0.001,-0.13673 0.62654,-0.17909 2.64382,-0.17909 h 2.64214 l 1.34351,-0.85964 c 0.92054,-0.58901 1.487,-0.85963 1.79932,-0.85963 0.36305,0 0.45583,-0.0594 0.45583,-0.2918 0,-0.21301 0.40956,-0.55842 1.51671,-1.27909 1.50992,-0.98288 1.52312,-0.99646 2.95293,-3.03929 0.78993,-1.12861 1.53575,-2.16478 1.6574,-2.30264 0.19568,-0.22171 0.20265,-0.61161 0.0604,-3.3812 -0.0884,-1.72182 -0.23506,-3.31757 -0.32589,-3.54611 -0.0909,-0.22853 -0.15262,-0.79134 -0.13731,-1.25069 0.0266,-0.7985 0.0132,-0.8331 -0.30514,-0.788 -0.29831,0.0423 -0.37396,-0.0707 -0.72696,-1.0861 -0.2167,-0.62329 -0.394,-1.28415 -0.394,-1.46855 0,-0.18439 -0.0633,-0.33528 -0.14055,-0.33528 -0.0772,0 -0.18151,-0.1632 -0.23157,-0.36269 -0.0651,-0.25922 -0.43372,-0.57211 -1.29219,-1.09671 -0.95596,-0.58416 -1.20115,-0.80259 -1.20115,-1.07001 0,-0.287 -0.0715,-0.33603 -0.48974,-0.33603 -0.81255,0 -0.94299,-0.109 -0.94299,-0.78816 v -0.61423 l -1.182,-0.093 c -0.6501,-0.0511 -1.61719,-0.12774 -2.14909,-0.17021 l -0.96709,-0.0772 v -0.56136 -0.56133 h -1.50437 -1.50436 v 0.56177 0.56178 l -1.07455,0.083 -2.14909,0.16591 -1.07455,0.083 v 0.48645 c 0,0.66857 -0.51654,0.92364 -1.87048,0.92364 h -1.02507 l 0.0531,0.55646 c 0.0487,0.51112 0.0171,0.56949 -0.38913,0.71636 -0.2432,0.0879 -0.58728,0.1599 -0.76463,0.1599 -0.25127,0 -0.31321,0.0712 -0.28061,0.32236 0.0258,0.19878 -0.18001,0.62446 -0.53686,1.11036 -0.31829,0.43341 -1.00016,1.36825 -1.51528,2.07746 l -0.93657,1.28945 -0.37668,2.8411 -0.37667,2.8411 1.14401,1.78012 c 0.62919,0.97905 1.14399,1.83879 1.14399,1.91054 0,0.38445 1.38591,1.72825 1.76744,1.71375 0.1705,-0.007 1.12736,0.20292 2.12634,0.46535 1.48491,0.3901 1.82937,0.52996 1.88791,0.76661 0.0394,0.15919 0.33499,1.15983 0.65693,2.22362 0.54462,1.79965 0.63493,2.36272 1.29839,8.09492 0.39218,3.3884 0.71373,6.26838 0.71456,6.39994 0.001,0.2221 -0.0406,0.22268 -0.58668,0.008 -0.32351,-0.12707 -0.62053,-0.31531 -0.66006,-0.41828 -0.0395,-0.10305 -0.1955,-0.18726 -0.34664,-0.18726 -0.15114,0 -0.72288,-0.22565 -1.27055,-0.50145 -0.54767,-0.2758 -1.03838,-0.50146 -1.09049,-0.50146 -0.0521,0 -0.0623,0.61838 -0.0228,1.37417 0.0408,0.77925 0.0191,1.29098 -0.05,1.182 -0.0676,-0.10671 -0.12277,3.8052 -0.124,8.79821 l -0.002,8.99037 -6.05328,-0.0212 c -3.3293,-0.0117 -7.66509,-0.0998 -9.63509,-0.19593 z"
       id="path2575"
       inkscape:connector-curvature="0"
       transform="matrix(1.5376095,0,0,1.5376095,-114.46324,-62.040275)" />
    <path
       style="fill:none;stroke:#ffffff;stroke-width:12;stroke-linecap:round;stroke-linejoin:miter;stroke-miterlimit:4;stroke-dasharray:none;stroke-opacity:1"
       d="M 144.87789,420.7244 H 378.75582"
       id="path5665"
       inkscape:connector-curvature="0" />
    <path
       style="fill:none;stroke:#ffffff;stroke-width:18;stroke-linecap:round;stroke-linejoin:miter;stroke-miterlimit:4;stroke-dasharray:none;stroke-opacity:1"
       d="M 171.93188,457.63918 H 352.7132"
       id="path5667"
       inkscape:connector-curvature="0" />
  </g>
</svg>
