<?xml version="1.0" encoding="UTF-8" standalone="no"?>
<svg
   xmlns:osb="http://www.openswatchbook.org/uri/2009/osb"
   xmlns:dc="http://purl.org/dc/elements/1.1/"
   xmlns:cc="http://creativecommons.org/ns#"
   xmlns:rdf="http://www.w3.org/1999/02/22-rdf-syntax-ns#"
   xmlns:svg="http://www.w3.org/2000/svg"
   xmlns="http://www.w3.org/2000/svg"
   xmlns:sodipodi="http://sodipodi.sourceforge.net/DTD/sodipodi-0.dtd"
   xmlns:inkscape="http://www.inkscape.org/namespaces/inkscape"
   style="height: 512px; width: 512px;"
   viewBox="0 0 512 512"
   version="1.1"
   id="svg835"
   sodipodi:docname="stone-bridge.svg"
   inkscape:version="0.92.2 (5c3e80d, 2017-08-06)">
  <metadata
     id="metadata841">
    <rdf:RDF>
      <cc:Work
         rdf:about="">
        <dc:format>image/svg+xml</dc:format>
        <dc:type
           rdf:resource="http://purl.org/dc/dcmitype/StillImage" />
      </cc:Work>
    </rdf:RDF>
  </metadata>
  <defs
     id="defs839">
    <linearGradient
       id="linearGradient2516"
       osb:paint="solid">
      <stop
         style="stop-color:#005bff;stop-opacity:1;"
         offset="0"
         id="stop2514" />
    </linearGradient>
    <filter
       style="color-interpolation-filters:sRGB;"
       inkscape:label="Invert"
       id="filter3456">
      <feColorMatrix
         type="hueRotate"
         values="180"
         result="color1"
         id="feColorMatrix3452" />
      <feColorMatrix
         values="-1 0 0 0 1 0 -1 0 0 1 0 0 -1 0 1 -0.21 -0.72 -0.07 2 0 "
         result="color2"
         id="feColorMatrix3454" />
    </filter>
    <filter
       style="color-interpolation-filters:sRGB;"
       inkscape:label="Invert"
       id="filter3462">
      <feColorMatrix
         type="hueRotate"
         values="180"
         result="color1"
         id="feColorMatrix3458" />
      <feColorMatrix
         values="-1 0 0 0 1 0 -1 0 0 1 0 0 -1 0 1 -0.21 -0.72 -0.07 2 0 "
         result="color2"
         id="feColorMatrix3460" />
    </filter>
    <filter
       style="color-interpolation-filters:sRGB;"
       inkscape:label="Invert"
       id="filter3468">
      <feColorMatrix
         type="hueRotate"
         values="180"
         result="color1"
         id="feColorMatrix3464" />
      <feColorMatrix
         values="-1 0 0 0 1 0 -1 0 0 1 0 0 -1 0 1 -0.21 -0.72 -0.07 2 0 "
         result="color2"
         id="feColorMatrix3466" />
    </filter>
    <filter
       style="color-interpolation-filters:sRGB;"
       inkscape:label="Invert"
       id="filter3474">
      <feColorMatrix
         type="hueRotate"
         values="180"
         result="color1"
         id="feColorMatrix3470" />
      <feColorMatrix
         values="-1 0 0 0 1 0 -1 0 0 1 0 0 -1 0 1 -0.21 -0.72 -0.07 2 0 "
         result="color2"
         id="feColorMatrix3472" />
    </filter>
    <filter
       style="color-interpolation-filters:sRGB;"
       inkscape:label="Invert"
       id="filter3480">
      <feColorMatrix
         type="hueRotate"
         values="180"
         result="color1"
         id="feColorMatrix3476" />
      <feColorMatrix
         values="-1 0 0 0 1 0 -1 0 0 1 0 0 -1 0 1 -0.21 -0.72 -0.07 2 0 "
         result="color2"
         id="feColorMatrix3478" />
    </filter>
    <filter
       style="color-interpolation-filters:sRGB;"
       inkscape:label="Invert"
       id="filter3486">
      <feColorMatrix
         type="hueRotate"
         values="180"
         result="color1"
         id="feColorMatrix3482" />
      <feColorMatrix
         values="-1 0 0 0 1 0 -1 0 0 1 0 0 -1 0 1 -0.21 -0.72 -0.07 2 0 "
         result="color2"
         id="feColorMatrix3484" />
    </filter>
    <filter
       style="color-interpolation-filters:sRGB;"
       inkscape:label="Invert"
       id="filter3492">
      <feColorMatrix
         type="hueRotate"
         values="180"
         result="color1"
         id="feColorMatrix3488" />
      <feColorMatrix
         values="-1 0 0 0 1 0 -1 0 0 1 0 0 -1 0 1 -0.21 -0.72 -0.07 2 0 "
         result="color2"
         id="feColorMatrix3490" />
    </filter>
    <filter
       style="color-interpolation-filters:sRGB;"
       inkscape:label="Invert"
       id="filter3498">
      <feColorMatrix
         type="hueRotate"
         values="180"
         result="color1"
         id="feColorMatrix3494" />
      <feColorMatrix
         values="-1 0 0 0 1 0 -1 0 0 1 0 0 -1 0 1 -0.21 -0.72 -0.07 2 0 "
         result="color2"
         id="feColorMatrix3496" />
    </filter>
    <filter
       style="color-interpolation-filters:sRGB;"
       inkscape:label="Invert"
       id="filter3504">
      <feColorMatrix
         type="hueRotate"
         values="180"
         result="color1"
         id="feColorMatrix3500" />
      <feColorMatrix
         values="-1 0 0 0 1 0 -1 0 0 1 0 0 -1 0 1 -0.21 -0.72 -0.07 2 0 "
         result="color2"
         id="feColorMatrix3502" />
    </filter>
    <filter
       style="color-interpolation-filters:sRGB;"
       inkscape:label="Invert"
       id="filter3510">
      <feColorMatrix
         type="hueRotate"
         values="180"
         result="color1"
         id="feColorMatrix3506" />
      <feColorMatrix
         values="-1 0 0 0 1 0 -1 0 0 1 0 0 -1 0 1 -0.21 -0.72 -0.07 2 0 "
         result="color2"
         id="feColorMatrix3508" />
    </filter>
    <filter
       style="color-interpolation-filters:sRGB;"
       inkscape:label="Invert"
       id="filter3516">
      <feColorMatrix
         type="hueRotate"
         values="180"
         result="color1"
         id="feColorMatrix3512" />
      <feColorMatrix
         values="-1 0 0 0 1 0 -1 0 0 1 0 0 -1 0 1 -0.21 -0.72 -0.07 2 0 "
         result="color2"
         id="feColorMatrix3514" />
    </filter>
    <filter
       style="color-interpolation-filters:sRGB;"
       inkscape:label="Invert"
       id="filter3522">
      <feColorMatrix
         type="hueRotate"
         values="180"
         result="color1"
         id="feColorMatrix3518" />
      <feColorMatrix
         values="-1 0 0 0 1 0 -1 0 0 1 0 0 -1 0 1 -0.21 -0.72 -0.07 2 0 "
         result="color2"
         id="feColorMatrix3520" />
    </filter>
    <filter
       style="color-interpolation-filters:sRGB;"
       inkscape:label="Invert"
       id="filter3528">
      <feColorMatrix
         type="hueRotate"
         values="180"
         result="color1"
         id="feColorMatrix3524" />
      <feColorMatrix
         values="-1 0 0 0 1 0 -1 0 0 1 0 0 -1 0 1 -0.21 -0.72 -0.07 2 0 "
         result="color2"
         id="feColorMatrix3526" />
    </filter>
    <filter
       style="color-interpolation-filters:sRGB;"
       inkscape:label="Invert"
       id="filter3534">
      <feColorMatrix
         type="hueRotate"
         values="180"
         result="color1"
         id="feColorMatrix3530" />
      <feColorMatrix
         values="-1 0 0 0 1 0 -1 0 0 1 0 0 -1 0 1 -0.21 -0.72 -0.07 2 0 "
         result="color2"
         id="feColorMatrix3532" />
    </filter>
  </defs>
  <sodipodi:namedview
     pagecolor="#ffffff"
     bordercolor="#666666"
     borderopacity="1"
     objecttolerance="10"
     gridtolerance="10"
     guidetolerance="10"
     inkscape:pageopacity="0"
     inkscape:pageshadow="2"
     inkscape:window-width="1920"
     inkscape:window-height="1001"
     id="namedview837"
     showgrid="false"
     inkscape:zoom="0.98876369"
     inkscape:cx="246.77016"
     inkscape:cy="329.67182"
     inkscape:window-x="-9"
     inkscape:window-y="-9"
     inkscape:window-maximized="1"
     inkscape:current-layer="layer5" />
  <g
     inkscape:groupmode="layer"
     id="layer5"
     inkscape:label="Layer 2" />
  <g
     inkscape:groupmode="layer"
     id="layer1"
     inkscape:label="Layer 1"
     style="display:inline">
    <path
       style="display:inline;fill:none;stroke:#ffffff;stroke-width:13;stroke-linecap:butt;stroke-linejoin:miter;stroke-miterlimit:4;stroke-dasharray:none;stroke-opacity:1"
       d="m 142.63422,416.80668 -62.674742,-0.22464 1.34785,-42.90637 15.27554,-21.79014 40.884602,16.17412 14.82628,2.69569 -7.63776,21.79014 z"
       id="path961"
       inkscape:connector-curvature="0" />
    <path
       style="fill:none;stroke:#ffffff;stroke-width:13;stroke-linecap:butt;stroke-linejoin:miter;stroke-miterlimit:4;stroke-dasharray:none;stroke-opacity:1"
       d="m 103.52364,355.07363 c 0,-1.58845 1.27075,-9.68954 1.74729,-11.27799 0.47654,-1.58845 22.55598,-28.11555 22.55598,-28.11555 l 30.81592,22.07944 9.53069,3.81229 c 0,0 -4.2888,12.54875 -5.40072,12.86643 -1.11192,0.31769 -10.47905,16.31709 -10.47905,16.31709 l -4.61122,-0.75028"
       id="path970"
       inkscape:connector-curvature="0" />
    <path
       style="fill:none;stroke:#ffffff;stroke-width:13;stroke-linecap:butt;stroke-linejoin:miter;stroke-miterlimit:4;stroke-dasharray:none;stroke-opacity:1"
       d="m 127.82691,315.68009 c -0.95307,-2.06498 -3.49459,-7.94225 -3.49459,-7.94225 l 39.87008,-35.58127 5.71842,-0.31768 14.61373,20.64984 12.54875,25.25635 -13.66066,11.27799 -12.70759,10.32491 -2.54153,2.22384"
       id="path972"
       inkscape:connector-curvature="0" />
    <path
       style="fill:none;stroke:#ffffff;stroke-width:13;stroke-linecap:butt;stroke-linejoin:miter;stroke-miterlimit:4;stroke-dasharray:none;stroke-opacity:1"
       d="m 176.27462,280.09882 c 0,0 14.77257,-9.213 16.20218,-10.00723 1.4296,-0.79423 13.02528,-5.40073 13.81951,-5.40073 0.79423,0 14.29604,-0.15883 14.29604,-0.15883 l 5.55958,22.39713 6.98917,11.91337 -12.86644,6.3538 -16.67871,7.30686 -6.51265,5.24189"
       id="path974"
       inkscape:connector-curvature="0" />
    <path
       style="fill:none;stroke:#ffffff;stroke-width:13;stroke-linecap:butt;stroke-linejoin:miter;stroke-miterlimit:4;stroke-dasharray:none;stroke-opacity:1"
       d="m 292.5491,262.94357 -8.41878,32.40438 -6.51263,6.83032 -21.12638,-3.81228 c 0,0 -14.45489,2.38267 -16.04335,2.06499 -1.58843,-0.3177 -7.30686,-1.58845 -7.30686,-1.58845 v 0"
       id="path976"
       inkscape:connector-curvature="0" />
    <path
       style="fill:none;stroke:#ffffff;stroke-width:13;stroke-linecap:butt;stroke-linejoin:miter;stroke-miterlimit:4;stroke-dasharray:none;stroke-opacity:1"
       d="m 220.59235,264.53203 2.54152,-8.57764 7.62455,-6.83032 50.98923,-0.3177 7.62456,6.19496 3.17689,7.94224"
       id="path978"
       inkscape:connector-curvature="0" />
    <path
       style="fill:none;stroke:#ffffff;stroke-width:13;stroke-linecap:butt;stroke-linejoin:miter;stroke-miterlimit:4;stroke-dasharray:none;stroke-opacity:1"
       d="m 281.74765,298.84253 2.85921,4.12996 c 0,0 28.75093,10.80146 29.54516,10.80146 0.79422,0 7.30686,-2.70036 7.30686,-2.70036 l 16.99641,-25.89174 -11.59568,-11.59567 -19.06139,-6.83032 -11.75453,-5.08305 -3.49459,1.27076"
       id="path980"
       inkscape:connector-curvature="0" />
    <path
       style="fill:none;stroke:#ffffff;stroke-width:13;stroke-linecap:butt;stroke-linejoin:miter;stroke-miterlimit:4;stroke-dasharray:none;stroke-opacity:1"
       d="m 321.45888,311.07359 1.11192,6.51264 28.11555,22.23829 4.76535,-0.63538 30.49823,-21.76176 c 0,0 3.1769,-6.19494 2.06498,-7.7834 -1.11191,-1.58845 -23.98558,-21.9206 -23.98558,-21.9206 l -16.83756,-5.08303 -8.73648,2.5415"
       id="path982"
       inkscape:connector-curvature="0" />
    <path
       style="fill:none;stroke:#ffffff;stroke-width:13;stroke-linecap:butt;stroke-linejoin:miter;stroke-miterlimit:4;stroke-dasharray:none;stroke-opacity:1"
       d="m 355.4517,339.18914 1.27076,7.94225 14.61373,20.01446 3.01806,0.47654 c 0,0 36.05779,-12.86645 34.78704,-15.40797 -1.27076,-2.54151 -13.02529,-22.39713 -13.97835,-23.3502 -0.95308,-0.95307 -9.21301,-11.43684 -9.21301,-11.43684"
       id="path984"
       inkscape:connector-curvature="0" />
    <path
       style="fill:none;stroke:#ffffff;stroke-width:13;stroke-linecap:butt;stroke-linejoin:miter;stroke-miterlimit:4;stroke-dasharray:none;stroke-opacity:1"
       d="m 374.35425,367.62239 -0.95307,6.35379 11.27799,43.20582 H 437.098 c 0,0 0.31769,-12.23106 -0.31769,-14.1372 -0.63539,-1.90613 -8.10109,-32.5632 -9.213,-34.15166 -1.11192,-1.58844 -10.64261,-19.37908 -10.64261,-19.37908 l -6.98919,3.1769"
       id="path986"
       inkscape:connector-curvature="0" />
    <path
       style="fill:none;stroke:#ffffff;stroke-width:13;stroke-linecap:butt;stroke-linejoin:miter;stroke-miterlimit:4;stroke-dasharray:none;stroke-opacity:1"
       d="M 79.959478,416.58204 H 3.8062934 V 333.01571 H 66.930319 l 6.514575,-4.49281 3.818895,3.36961 36.616421,0.67392"
       id="path988"
       inkscape:connector-curvature="0" />
    <path
       style="fill:none;stroke:#ffffff;stroke-width:13;stroke-linecap:butt;stroke-linejoin:miter;stroke-miterlimit:4;stroke-dasharray:none;stroke-opacity:1"
       d="M 81.307328,373.67567 3.1323715,373.45103"
       id="path990"
       inkscape:connector-curvature="0" />
    <path
       style="fill:none;stroke:#ffffff;stroke-width:13;stroke-linecap:butt;stroke-linejoin:miter;stroke-miterlimit:4;stroke-dasharray:none;stroke-opacity:1"
       d="m 70.524575,373.67567 -0.224653,42.90637"
       id="path992"
       inkscape:connector-curvature="0" />
    <path
       style="fill:none;stroke:#ffffff;stroke-width:13;stroke-linecap:butt;stroke-linejoin:miter;stroke-miterlimit:4;stroke-dasharray:none;stroke-opacity:1"
       d="m 5.1192039,333.07361 -0.7942245,-1.90614 v -39.63181 l 38.5993196,-0.47653 2.462096,1.50902 61.234715,-1.19134 2.38268,-2.06497 c 0,0 0.79421,2.5415 3.09747,2.46209 2.30326,-0.0794 29.70401,0 29.70401,0"
       id="path994"
       inkscape:connector-curvature="0" />
    <path
       style="fill:none;stroke:#ffffff;stroke-width:13;stroke-linecap:butt;stroke-linejoin:miter;stroke-miterlimit:4;stroke-dasharray:none;stroke-opacity:1"
       d="M 73.444894,328.5229 V 292.40931"
       id="path998"
       inkscape:connector-curvature="0" />
    <path
       style="fill:none;stroke:#ffffff;stroke-width:13;stroke-linecap:butt;stroke-linejoin:miter;stroke-miterlimit:4;stroke-dasharray:none;stroke-opacity:1"
       d="M 4.3249794,291.53566 V 203.62269 H 84.452288"
       id="path1000"
       inkscape:connector-curvature="0" />
    <path
       style="fill:none;stroke:#ffffff;stroke-width:13;stroke-linecap:butt;stroke-linejoin:miter;stroke-miterlimit:4;stroke-dasharray:none;stroke-opacity:1"
       d="M 4.5925348,249.11242 H 86.361725 v -44.70349 l -1.909437,-0.78624"
       id="path1002"
       inkscape:connector-curvature="0" />
    <path
       style="fill:none;stroke:#ffffff;stroke-width:13;stroke-linecap:butt;stroke-linejoin:miter;stroke-miterlimit:4;stroke-dasharray:none;stroke-opacity:1"
       d="M 86.361725,249.11242 H 109.3874 l -0.38361,40.19942"
       id="path1004"
       inkscape:connector-curvature="0" />
    <path
       style="fill:none;stroke:#ffffff;stroke-width:13;stroke-linecap:butt;stroke-linejoin:miter;stroke-miterlimit:4;stroke-dasharray:none;stroke-opacity:1"
       d="m 42.924299,291.05913 0.08179,-35.88141 4.268174,-5.39137"
       id="path1006"
       inkscape:connector-curvature="0" />
    <path
       style="fill:none;stroke:#ffffff;stroke-width:13;stroke-linecap:butt;stroke-linejoin:miter;stroke-miterlimit:4;stroke-dasharray:none;stroke-opacity:1"
       d="m 109.3874,249.11242 36.05482,-0.56159 0.22464,-33.92074 -59.192798,-0.22465"
       id="path1008"
       inkscape:connector-curvature="0" />
    <path
       style="fill:none;stroke:#ffffff;stroke-width:13;stroke-linecap:butt;stroke-linejoin:miter;stroke-miterlimit:4;stroke-dasharray:none;stroke-opacity:1"
       d="m 4.3678948,214.29312 c 0.5616015,-0.22463 82.1061672,0.11233 82.1061672,0.11233"
       id="path1010"
       inkscape:connector-curvature="0" />
    <path
       style="fill:none;stroke:#ffffff;stroke-width:13;stroke-linecap:butt;stroke-linejoin:miter;stroke-miterlimit:4;stroke-dasharray:none;stroke-opacity:1"
       d="m 86.361725,204.40893 1.460177,-1.34784 h 57.171038 l 0.67392,11.569"
       id="path1012"
       inkscape:connector-curvature="0" />
    <path
       style="fill:none;stroke:#ffffff;stroke-width:13;stroke-linecap:butt;stroke-linejoin:miter;stroke-miterlimit:4;stroke-dasharray:none;stroke-opacity:1"
       d="m 145.77918,247.20299 65.93204,-0.56161"
       id="path1014"
       inkscape:connector-curvature="0" />
    <path
       style="fill:none;stroke:#ffffff;stroke-width:13;stroke-linecap:butt;stroke-linejoin:miter;stroke-miterlimit:4;stroke-dasharray:none;stroke-opacity:1"
       d="m 177.11655,247.76457 0.5616,31.44971"
       id="path1016"
       inkscape:connector-curvature="0" />
    <path
       style="fill:none;stroke:#ffffff;stroke-width:13;stroke-linecap:butt;stroke-linejoin:miter;stroke-miterlimit:4;stroke-dasharray:none;stroke-opacity:1"
       d="m 145.32991,205.19518 1.34784,-1.79713 h 65.37043 l -0.11233,10.78276 -66.269,-1.01089"
       id="path1018"
       inkscape:connector-curvature="0" />
    <path
       style="fill:none;stroke:#ffffff;stroke-width:13;stroke-linecap:butt;stroke-linejoin:miter;stroke-miterlimit:4;stroke-dasharray:none;stroke-opacity:1"
       d="m 212.49746,204.52126 2.13408,-1.68482 h 79.74743 l 1.79714,3.2573 -0.11233,6.96386 -16.96038,1.57249 -65.25811,-0.22465 -1.90945,-0.22463"
       id="path1020"
       inkscape:connector-curvature="0" />
    <path
       style="fill:none;stroke:#ffffff;stroke-width:13;stroke-linecap:butt;stroke-linejoin:miter;stroke-miterlimit:4;stroke-dasharray:none;stroke-opacity:1"
       d="m 211.71122,246.64138 1.90945,1.68479 17.13775,0.7979"
       id="path1022"
       inkscape:connector-curvature="0" />
    <path
       style="fill:none;stroke:#ffffff;stroke-width:13;stroke-linecap:butt;stroke-linejoin:miter;stroke-miterlimit:4;stroke-dasharray:none;stroke-opacity:1"
       d="m 281.74765,248.80637 c 0,0 13.60277,0.45741 13.86685,0 0.26409,-0.4574 0,-35.63645 0,-35.63645"
       id="path1026"
       inkscape:connector-curvature="0" />
    <path
       style="fill:none;stroke:#ffffff;stroke-width:13;stroke-linecap:butt;stroke-linejoin:miter;stroke-miterlimit:4;stroke-dasharray:none;stroke-opacity:1"
       d="M 211.71122,246.64138 V 213.95617"
       id="path1028"
       inkscape:connector-curvature="0" />
    <path
       style="fill:none;stroke:#ffffff;stroke-width:13;stroke-linecap:butt;stroke-linejoin:miter;stroke-miterlimit:4;stroke-dasharray:none;stroke-opacity:1"
       d="m 506.19554,203.69441 v 88.95316 h -106.1084 l -1.90615,-1.90614 -5.40074,3.17691 h -21.9206"
       id="path1030"
       inkscape:connector-curvature="0" />
    <path
       style="fill:none;stroke:#ffffff;stroke-width:13;stroke-linecap:butt;stroke-linejoin:miter;stroke-miterlimit:4;stroke-dasharray:none;stroke-opacity:1"
       d="m 296.04369,248.17099 h 101.50192 l 0.63538,42.57044"
       id="path1032"
       inkscape:connector-curvature="0" />
    <path
       style="fill:none;stroke:#ffffff;stroke-width:13;stroke-linecap:butt;stroke-linejoin:miter;stroke-miterlimit:4;stroke-dasharray:none;stroke-opacity:1"
       d="m 315.89931,248.96522 v 20.01445"
       id="path1034"
       inkscape:connector-curvature="0" />
    <path
       style="fill:none;stroke:#ffffff;stroke-width:13;stroke-linecap:butt;stroke-linejoin:miter;stroke-miterlimit:4;stroke-dasharray:none;stroke-opacity:1"
       d="M 397.54561,248.17099 H 505.719"
       id="path1036"
       inkscape:connector-curvature="0" />
    <path
       style="fill:none;stroke:#ffffff;stroke-width:13;stroke-linecap:butt;stroke-linejoin:miter;stroke-miterlimit:4;stroke-dasharray:none;stroke-opacity:1"
       d="m 455.20631,248.48868 v 43.68236"
       id="path1038"
       inkscape:connector-curvature="0" />
    <path
       style="fill:none;stroke:#ffffff;stroke-width:13;stroke-linecap:butt;stroke-linejoin:miter;stroke-miterlimit:4;stroke-dasharray:none;stroke-opacity:1"
       d="m 296.17611,206.09374 0.50544,-3.14497 h 65.81972 c 0,0 0.67391,9.88419 0.33695,10.05267 -0.33695,0.16848 -13.47844,2.07792 -13.47844,2.07792 h -53.46447"
       id="path1040"
       inkscape:connector-curvature="0" />
    <path
       style="fill:none;stroke:#ffffff;stroke-width:13;stroke-linecap:butt;stroke-linejoin:miter;stroke-miterlimit:4;stroke-dasharray:none;stroke-opacity:1"
       d="m 362.89439,203.56654 h 53.85759 v 11.06355 h -53.29599 l -0.28081,-1.62865"
       id="path1042"
       inkscape:connector-curvature="0" />
    <path
       style="fill:none;stroke:#ffffff;stroke-width:13;stroke-linecap:butt;stroke-linejoin:miter;stroke-miterlimit:4;stroke-dasharray:none;stroke-opacity:1"
       d="m 416.75198,203.56654 4.21201,-0.61777 h 84.80186 l 0.42969,0.74564"
       id="path1044"
       inkscape:connector-curvature="0" />
    <path
       style="fill:none;stroke:#ffffff;stroke-width:13;stroke-linecap:butt;stroke-linejoin:miter;stroke-miterlimit:4;stroke-dasharray:none;stroke-opacity:1"
       d="m 416.75198,214.63009 h 88.90155"
       id="path1046"
       inkscape:connector-curvature="0" />
    <path
       style="fill:none;stroke:#ffffff;stroke-width:13;stroke-linecap:butt;stroke-linejoin:miter;stroke-miterlimit:4;stroke-dasharray:none;stroke-opacity:1"
       d="m 418.71759,215.19169 v 33.02216"
       id="path1048"
       inkscape:connector-curvature="0" />
    <path
       style="fill:none;stroke:#ffffff;stroke-width:13;stroke-linecap:butt;stroke-linejoin:miter;stroke-miterlimit:4;stroke-dasharray:none;stroke-opacity:1"
       d="m 364.80383,214.96704 v 33.02218"
       id="path1052"
       inkscape:connector-curvature="0" />
    <path
       style="fill:none;stroke:#ffffff;stroke-width:13;stroke-linecap:butt;stroke-linejoin:miter;stroke-miterlimit:4;stroke-dasharray:none;stroke-opacity:1"
       d="m 506.19554,292.64757 0.63538,2.38267 V 415.7524"
       id="path1054"
       inkscape:connector-curvature="0" />
    <path
       style="fill:none;stroke:#ffffff;stroke-width:13;stroke-linecap:butt;stroke-linejoin:miter;stroke-miterlimit:4;stroke-dasharray:none;stroke-opacity:1"
       d="m 437.098,417.182 h 69.73292 l 0.0397,-2.18412"
       id="path1056"
       inkscape:connector-curvature="0" />
    <path
       style="fill:none;stroke:#ffffff;stroke-width:13;stroke-linecap:butt;stroke-linejoin:miter;stroke-miterlimit:4;stroke-dasharray:none;stroke-opacity:1"
       d="m 428.82642,292.91735 v 39.31212 l 5.05441,2.35872 h 73.00822"
       id="path1058"
       inkscape:connector-curvature="0" />
    <path
       style="fill:none;stroke:#ffffff;stroke-width:13;stroke-linecap:butt;stroke-linejoin:miter;stroke-miterlimit:4;stroke-dasharray:none;stroke-opacity:1"
       d="m 398.72456,333.57731 h 26.17064 l 3.93122,-1.34784"
       id="path1060"
       inkscape:connector-curvature="0" />
    <path
       style="fill:none;stroke:#ffffff;stroke-width:13;stroke-linecap:butt;stroke-linejoin:miter;stroke-miterlimit:4;stroke-dasharray:none;stroke-opacity:1"
       d="m 429.05105,373.90031 h 77.838"
       id="path1062"
       inkscape:connector-curvature="0" />
    <path
       style="fill:none;stroke:#ffffff;stroke-width:13;stroke-linecap:butt;stroke-linejoin:miter;stroke-miterlimit:4;stroke-dasharray:none;stroke-opacity:1"
       d="m 461.84859,335.03748 v 38.86283"
       id="path1064"
       inkscape:connector-curvature="0" />
  </g>
  <g
     inkscape:groupmode="layer"
     id="layer3"
     inkscape:label="ancla"
     style="display:inline">
    <path
       style="fill:#000000;fill-opacity:1;stroke:#000000;stroke-width:1.14618266px;stroke-linecap:butt;stroke-linejoin:miter;stroke-opacity:1;filter:url(#filter3534)"
       d="m 192.45349,362.91301 17.33601,-8.88291 9.45601,-7.30692 7.16364,-6.73382 5.58764,-7.88001 2.14909,-8.45309 0.28655,-14.75711 -8.02328,-17.04946 -12.60801,-27.36512 20.77456,-10.88873 9.13885,2.05126 17.6278,33.22941 13.37281,13.1702 13.98067,2.63404 13.98066,-2.22881 15.80425,-8.71258 c 0,0 10.33353,-11.75187 10.53615,-12.76497 0.20261,-1.01308 5.87593,-19.04612 5.87593,-19.04612 l 3.03928,-15.39899 -2.02619,-17.22257 -2.43142,-10.53615 -13.77804,16.81732 c 0,0 -4.27309,0.72005 -2.43142,-2.02618 1.84165,-2.74624 3.4445,-31.40585 3.24188,-32.21633 -0.20261,-0.81047 -1.21571,-20.66707 -1.82356,-22.08541 -0.60786,-1.41832 -4.05237,-14.3859 -5.26808,-15.60161 -1.21571,-1.21571 -4.45761,-8.91521 -4.45761,-8.91521 l 12.15484,5.43881 10.0291,8.59637 11.74837,10.31564 12.89455,16.9062 9.02619,19.77165 1.86255,5.73091 -13.75419,-7.59346 c 0,0 4.29818,14.61383 4.29818,15.90329 0,1.28945 1.576,19.34183 1.576,19.34183 l -2.57891,18.76874 -9.16946,31.37675 -15.76001,26.9353 -11.31856,15.18692 -10.31564,12.75128 -5.15782,11.31855 -29.80483,-3.6911 -23.18526,4.07414 -14.64063,-1.84412 -17.61149,2.95732 -19.77721,-3.91356 -7.01994,-0.16159"
       id="path1069"
       inkscape:connector-curvature="0"
       sodipodi:nodetypes="cccccccccccccccccccccccccsccccccccsccccccccccccc"
       transform="matrix(1.1086884,0,0,1.1086884,-26.93026,17.683764)" />
    <g
       id="g2565"
       transform="matrix(1.2707595,0,0,1.2707595,-66.281593,15.304328)"
       style="filter:url(#filter3528)">
      <path
         sodipodi:nodetypes="ccccccscccccccccccccccccccc"
         inkscape:connector-curvature="0"
         id="path1071"
         d="M 203.625,146.875 C 203.25,146.375 189.5,124.5 189.5,124.5 l 4.625,-8.25 1,-9.625 -2.75,-7.750001 -4.5,-5.125 c 0,0 -7.125,-4.125 -7.625,-4.125 -0.5,0 -8.625,-1.875 -8.625,-1.875 l -10,2 -5,3.375 -5.75,6.625 -2.125,9.500001 1.375,6.625 3,5.5 1.5,2.5 -0.75,1.5 -4.125,0.25 -3.75,4.125 -0.125,6.875 v 10.25 l 20.38348,0.87662 -0.38348,-17.87662 3.625,1.75 3.875,-0.625 4.25,8.75 3.75,7 z"
         style="fill:none;fill-opacity:1;fill-rule:evenodd;stroke:#000000;stroke-width:1px;stroke-linecap:butt;stroke-linejoin:miter;stroke-opacity:1" />
      <path
         sodipodi:nodetypes="cccccccccc"
         inkscape:connector-curvature="0"
         id="path1073"
         d="m 155.125,138.625 3,1.125 0.875,-4.625 -3.875,1 -2.5,-2.125 -1.25,3.25 0.375,2.375 2.625,0.625 -0.25,-1.75 z"
         style="fill:none;fill-opacity:1;fill-rule:evenodd;stroke:#000000;stroke-width:1px;stroke-linecap:butt;stroke-linejoin:miter;stroke-opacity:1" />
      <path
         sodipodi:nodetypes="cccccccccccccc"
         inkscape:connector-curvature="0"
         id="path1075"
         d="m 162.625,114 4.25,1.125 1.25,4.375 h 5 l 5.625,-3.625 2.75,-3.875 -0.25,-5 -1.875,-5.125 -5,-3.125001 -5.625,-0.125 -5.375,2.875001 -2.75,3.75 -0.625,4.625 z"
         style="fill:none;fill-opacity:1;fill-rule:evenodd;stroke:#000000;stroke-width:1px;stroke-linecap:butt;stroke-linejoin:miter;stroke-opacity:1" />
      <path
         inkscape:connector-curvature="0"
         id="path2556"
         d="m 168.125,119.5 1.375,12.125"
         style="fill:none;stroke:#000000;stroke-width:1px;stroke-linecap:butt;stroke-linejoin:miter;stroke-opacity:1" />
      <path
         inkscape:connector-curvature="0"
         id="path2558"
         d="m 152.625,134 -2.875,-8.375"
         style="fill:none;stroke:#000000;stroke-width:1px;stroke-linecap:butt;stroke-linejoin:miter;stroke-opacity:1" />
    </g>
    <path
       style="fill:#000000;fill-opacity:1;fill-rule:evenodd;stroke:#000000;stroke-width:2.40698361;stroke-linecap:round;stroke-linejoin:round;stroke-miterlimit:4;stroke-dasharray:none;stroke-opacity:1;filter:url(#filter3522)"
       d="m 138.12099,165.83977 c -1.97,-0.0962 -4.08149,-0.22445 -4.69219,-0.28515 l -1.11036,-0.11038 2.8e-4,-5.31715 c 1.6e-4,-2.92443 0.043,-7.116 0.0952,-9.31461 l 0.0949,-3.99748 1.65851,-1.83511 c 0.91218,-1.00932 1.69852,-1.78938 1.7474,-1.73346 0.0489,0.0559 0.67639,1.82633 1.39443,3.93423 l 1.30553,3.83255 h -0.36292 c -0.36253,0 -0.36292,0.001 -0.33952,1.25364 0.0128,0.68951 -0.0494,1.44705 -0.13849,1.68345 -0.0891,0.2364 -0.22371,0.59101 -0.29926,0.788 -0.0958,0.25 -0.0588,0.84495 0.12294,1.96972 0.14316,0.88633 0.28743,1.63866 0.32061,1.67184 0.083,0.083 4.20447,1.07113 4.25606,1.0204 0.0228,-0.0225 -0.0281,-0.47626 -0.11313,-1.0085 -0.0851,-0.53224 -0.13242,-0.98988 -0.10534,-1.01697 0.0271,-0.0271 0.98062,0.30298 2.11894,0.7335 1.14576,0.43333 2.09136,0.71815 2.11827,0.63802 0.0267,-0.0797 0.14442,-0.24056 0.26151,-0.35766 0.13553,-0.13552 0.2002,-0.43401 0.17793,-0.82126 -0.0193,-0.33459 0.17824,-1.72235 0.43884,-3.0839 0.26059,-1.36153 0.44632,-2.50301 0.41272,-2.5366 -0.0336,-0.0336 -0.54216,0.0638 -1.13017,0.21652 -0.78489,0.20382 -1.55869,0.27827 -2.91094,0.28007 -1.70422,0.002 -1.87017,-0.0217 -2.22073,-0.31991 -0.27333,-0.23256 -0.36623,-0.43211 -0.33353,-0.71636 0.0414,-0.35971 0.003,-0.39401 -0.42982,-0.39414 l -0.47515,-1.5e-4 -1.4623,-4.25653 c -0.80426,-2.34109 -1.43687,-4.28197 -1.40578,-4.31304 0.0311,-0.0311 0.89865,-0.0495 1.92793,-0.041 1.1669,0.009 1.87142,-0.0386 1.87142,-0.12828 0,-0.0791 0.0954,-0.14379 0.212,-0.14379 0.1166,0 0.34356,-0.25789 0.50437,-0.57309 0.1608,-0.3152 0.38099,-0.5731 0.48931,-0.5731 0.12696,0 0.2175,-0.21549 0.25478,-0.60633 0.0503,-0.5276 -0.0408,-0.77314 -0.70132,-1.891 -0.41753,-0.70658 -0.75914,-1.43305 -0.75914,-1.6144 0,-0.18627 -0.0868,-0.32972 -0.19951,-0.32972 -0.11233,0 -0.92401,-1.33356 -1.85827,-3.05329 l -1.65877,-3.05328 -0.77068,-3.68259 -0.77067,-3.68259 0.9078,-4.04541 c 0.4993,-2.22497 1.01572,-4.52894 1.14761,-5.11995 0.3519,-1.57683 0.52504,-1.86254 1.12872,-1.86254 0.47669,0 0.49777,-0.022 0.49777,-0.51971 0,-0.43602 0.16042,-0.70713 0.99615,-1.68346 0.54787,-0.64006 1.20873,-1.3933 1.46855,-1.67386 0.25981,-0.28056 0.71848,-0.81247 1.01926,-1.182 0.30077,-0.36954 0.63926,-0.67188 0.75218,-0.67188 0.1129,0 0.20532,-0.1163 0.20532,-0.25844 0,-0.32367 0.86115,-1.17429 1.18882,-1.17429 0.13415,0 0.24391,-0.0609 0.24391,-0.13539 0,-0.0745 0.36509,-0.39683 0.81132,-0.71636 0.65403,-0.46834 0.93365,-0.58098 1.44225,-0.58098 0.60375,0 0.62896,-0.017 0.58558,-0.394 -0.0366,-0.31798 0.0515,-0.45534 0.45612,-0.71189 0.2758,-0.17484 0.61429,-0.31991 0.75219,-0.32237 0.13789,-0.002 0.25072,-0.0903 0.25072,-0.19517 0,-0.10487 0.14506,-0.26654 0.32237,-0.35924 0.1773,-0.0927 2.80844,-0.66772 5.84697,-1.27784 l 5.52463,-1.109307 1.9972,0.4647 c 1.09846,0.25558 3.25442,0.726087 4.79103,1.045587 2.62243,0.54525 2.90808,0.63737 4.65637,1.50157 3.33186,1.64697 6.71205,3.65745 7.34168,4.36669 3.43945,3.87439 4.19178,4.80308 4.19178,5.17446 0,0.24633 0.0861,0.40939 0.23135,0.43849 0.16052,0.0322 0.59804,1.07685 1.42945,3.41323 0.65896,1.85181 1.19958,3.4376 1.20138,3.524 0.002,0.0864 0.10659,0.3643 0.23301,0.61757 0.2157,0.4324 0.19525,0.79026 -0.33517,5.86399 l -0.5649,5.40349 -1.51431,2.71857 c -0.89303,1.60323 -1.63723,2.77661 -1.81393,2.86 -0.19458,0.0918 -0.29961,0.27644 -0.29961,0.52655 0,0.21181 -0.38683,1.0665 -0.85964,1.8993 -0.4728,0.83281 -0.85963,1.58021 -0.85963,1.66089 0,0.0807 1.01545,1.75911 2.25655,3.72981 1.24109,1.97071 3.23869,5.14486 4.4391,7.05366 1.20041,1.90881 2.18363,3.58339 2.18491,3.72129 0.001,0.13791 0.0922,0.25073 0.20194,0.25073 0.1098,0 0.23577,0.0943 0.28002,0.20963 0.0443,0.1153 0.36492,0.6472 0.71263,1.18201 1.46551,2.25406 1.72939,2.70075 1.69593,2.87072 -0.0194,0.0985 0.0262,0.1791 0.10143,0.1791 0.0752,0 0.41269,0.43519 0.75,0.96709 0.45316,0.71462 0.60327,1.08865 0.57494,1.43273 -0.0331,0.40283 0.007,0.46567 0.29503,0.4659 0.54636,4.2e-4 1.12135,1.05486 1.12135,2.0564 v 0.80879 h -11.37266 c -12.62963,0 -11.80152,0.0669 -11.71413,-0.9473 0.0352,-0.40831 -0.005,-0.48543 -0.25364,-0.48543 -0.4033,0 -1.15923,-1.49219 -1.15923,-2.28827 0,-0.50295 -0.0415,-0.57723 -0.32236,-0.57752 -0.46056,-4.3e-4 -1.11037,-1.27469 -1.11037,-2.17733 0,-0.61838 -0.0289,-0.67217 -0.38366,-0.71409 -0.55633,-0.0658 -1.0397,-1.06858 -1.04503,-2.16813 -0.003,-0.82375 -0.008,-0.83281 -0.39804,-0.788 -0.34767,0.04 -0.43401,-0.0388 -0.73429,-0.67103 -0.24421,-0.51412 -0.33229,-0.92872 -0.31196,-1.46855 0.027,-0.71856 0.0119,-0.75218 -0.33785,-0.75218 -0.51125,0 -1.08735,-1.13613 -1.08735,-2.14432 0,-0.67797 -0.0219,-0.72114 -0.36633,-0.72114 -0.31792,0 -0.43318,-0.14675 -0.87206,-1.11036 -0.27815,-0.6107 -0.52246,-1.12732 -0.54291,-1.14803 -0.0205,-0.0207 -0.96584,0.11484 -2.10086,0.30124 -1.86912,0.30695 -2.07311,0.31725 -2.16381,0.10935 -0.0856,-0.19644 -1.41069,-11.65392 -1.40592,-12.15707 0.001,-0.13673 0.62654,-0.17909 2.64382,-0.17909 h 2.64214 l 1.34351,-0.85964 c 0.92054,-0.58901 1.487,-0.85963 1.79932,-0.85963 0.36305,0 0.45583,-0.0594 0.45583,-0.2918 0,-0.21301 0.40956,-0.55842 1.51671,-1.27909 1.50992,-0.98288 1.52312,-0.99646 2.95293,-3.03929 0.78993,-1.12861 1.53575,-2.16478 1.6574,-2.30264 0.19568,-0.22171 0.20265,-0.61161 0.0604,-3.3812 -0.0884,-1.72182 -0.23506,-3.31757 -0.32589,-3.54611 -0.0909,-0.22853 -0.15262,-0.79134 -0.13731,-1.25069 0.0266,-0.7985 0.0132,-0.8331 -0.30514,-0.788 -0.29831,0.0423 -0.37396,-0.0707 -0.72696,-1.0861 -0.2167,-0.62329 -0.394,-1.28415 -0.394,-1.46855 0,-0.18439 -0.0633,-0.33528 -0.14055,-0.33528 -0.0772,0 -0.18151,-0.1632 -0.23157,-0.36269 -0.0651,-0.25922 -0.43372,-0.57211 -1.29219,-1.09671 -0.95596,-0.58416 -1.20115,-0.80259 -1.20115,-1.07001 0,-0.287 -0.0715,-0.33603 -0.48974,-0.33603 -0.81255,0 -0.94299,-0.109 -0.94299,-0.78816 v -0.61423 l -1.182,-0.093 c -0.6501,-0.0511 -1.61719,-0.12774 -2.14909,-0.17021 l -0.96709,-0.0772 v -0.56136 -0.56133 h -1.50437 -1.50436 v 0.56177 0.56178 l -1.07455,0.083 -2.14909,0.16591 -1.07455,0.083 v 0.48645 c 0,0.66857 -0.51654,0.92364 -1.87048,0.92364 h -1.02507 l 0.0531,0.55646 c 0.0487,0.51112 0.0171,0.56949 -0.38913,0.71636 -0.2432,0.0879 -0.58728,0.1599 -0.76463,0.1599 -0.25127,0 -0.31321,0.0712 -0.28061,0.32236 0.0258,0.19878 -0.18001,0.62446 -0.53686,1.11036 -0.31829,0.43341 -1.00016,1.36825 -1.51528,2.07746 l -0.93657,1.28945 -0.37668,2.8411 -0.37667,2.8411 1.14401,1.78012 c 0.62919,0.97905 1.14399,1.83879 1.14399,1.91054 0,0.38445 1.38591,1.72825 1.76744,1.71375 0.1705,-0.007 1.12736,0.20292 2.12634,0.46535 1.48491,0.3901 1.82937,0.52996 1.88791,0.76661 0.0394,0.15919 0.33499,1.15983 0.65693,2.22362 0.54462,1.79965 0.63493,2.36272 1.29839,8.09492 0.39218,3.3884 0.71373,6.26838 0.71456,6.39994 0.001,0.2221 -0.0406,0.22268 -0.58668,0.008 -0.32351,-0.12707 -0.62053,-0.31531 -0.66006,-0.41828 -0.0395,-0.10305 -0.1955,-0.18726 -0.34664,-0.18726 -0.15114,0 -0.72288,-0.22565 -1.27055,-0.50145 -0.54767,-0.2758 -1.03838,-0.50146 -1.09049,-0.50146 -0.0521,0 -0.0623,0.61838 -0.0228,1.37417 0.0408,0.77925 0.0191,1.29098 -0.05,1.182 -0.0676,-0.10671 -0.12277,3.8052 -0.124,8.79821 l -0.002,8.99037 -6.05328,-0.0212 c -3.3293,-0.0117 -7.66509,-0.0998 -9.63509,-0.19593 z"
       id="path2575"
       inkscape:connector-curvature="0"
       transform="matrix(1.1086884,0,0,1.1086884,-26.93026,17.683764)" />
    <path
       style="fill:none;stroke:#000000;stroke-width:2.29236531;stroke-linecap:butt;stroke-linejoin:miter;stroke-miterlimit:4;stroke-dasharray:none;stroke-opacity:1;filter:url(#filter3516)"
       d="m 152.94151,359.99557 1.25813,3.34726 17.19274,-1.576 10.74546,2.14909 10.31565,-1.00291"
       id="path2585"
       inkscape:connector-curvature="0"
       transform="matrix(1.1086884,0,0,1.1086884,-26.93026,17.683764)" />
    <path
       style="fill:none;stroke:#000000;stroke-width:2.29236531;stroke-linecap:butt;stroke-linejoin:miter;stroke-miterlimit:4;stroke-dasharray:none;stroke-opacity:1;filter:url(#filter3510)"
       d="m 305.49576,363.34283 c 0,0 16.3331,-2.29236 17.33601,-2.43564 1.00291,-0.14327 13.1811,4.01164 14.47056,3.86837 1.28945,-0.14327 19.19856,-4.29818 21.34765,-4.15491 2.14909,0.14327 9.45601,1.576 9.45601,1.576 l 3.152,-1.86255"
       id="path2587"
       inkscape:connector-curvature="0"
       transform="matrix(1.1086884,0,0,1.1086884,-26.93026,17.683764)" />
    <path
       style="fill:#000000;fill-opacity:1;stroke:#000000;stroke-width:1.14618266px;stroke-linecap:butt;stroke-linejoin:miter;stroke-opacity:1;filter:url(#filter3504)"
       d="m 212.9415,378.38648 c 0,0 8.1811,-3.09323 8.43437,-3.04257 0.25328,0.0507 15.04442,0.35459 15.39899,0.40524 0.35458,0.0507 10.58682,0.96244 12.86628,1.0131 2.27945,0.0507 9.52306,-1.72227 9.52306,-1.72227 l -8.86456,2.38077 c 0,0 -13.93001,0.50655 -14.43656,0.4559 -0.50654,-0.0507 -9.97895,0.86112 -10.89074,0.70916 -0.91177,-0.15197 -12.03084,-0.19933 -12.03084,-0.19933 z"
       id="path2593"
       inkscape:connector-curvature="0"
       transform="matrix(1.1086884,0,0,1.1086884,-26.93026,17.683764)" />
    <path
       style="fill:#000000;fill-opacity:1;stroke:#000000;stroke-width:1.14618266px;stroke-linecap:butt;stroke-linejoin:miter;stroke-opacity:1;filter:url(#filter3498)"
       d="m 160.43201,386.26649 c 0,0 10.74546,-5.15783 11.46183,-5.3011 0.71636,-0.14327 10.0291,-0.85964 10.45891,-0.788 0.42982,0.0716 10.38728,2.65055 11.67674,2.86546 1.28946,0.21491 7.52182,1.43273 8.81128,0.93127 1.28945,-0.50145 5.65928,-1.64764 7.6651,-1.93418 2.00582,-0.28655 12.03491,1.28945 12.03491,1.28945 0,0 -12.96619,0.0716 -13.39601,0.14328 -0.42981,0.0716 -7.092,2.07745 -8.59637,2.22072 -1.50436,0.14328 -12.53637,0.21491 -13.61092,0.28655 -1.07454,0.0716 -15.04364,1.36109 -16.04655,1.50437 -1.00291,0.14327 -11.6051,0.85963 -11.89165,0.85963 -0.28654,0 1.43273,-2.07745 1.43273,-2.07745 z"
       id="path2597"
       inkscape:connector-curvature="0"
       transform="matrix(1.1086884,0,0,1.1086884,-26.93026,17.683764)" />
    <path
       style="fill:#000000;fill-opacity:1;stroke:#000000;stroke-width:1.14618266px;stroke-linecap:butt;stroke-linejoin:miter;stroke-opacity:1;filter:url(#filter3492)"
       d="m 356.07107,375.37775 c -1.576,0 -9.31274,-0.57309 -9.67092,-0.788 -0.35818,-0.21491 -8.81128,-3.43855 -9.59928,-3.152 -0.788,0.28654 -15.11528,4.22655 -16.40474,4.36982 -1.28945,0.14327 -13.61092,-2.50728 -15.25855,-2.57891 -1.64764,-0.0716 -20.41638,4.01164 -20.41638,4.01164 l -6.59055,0.0716 c 0,0 6.87709,-1.28945 7.66509,-1.64763 0.788,-0.35819 14.61383,-5.58764 15.68838,-5.87419 1.07454,-0.28655 13.46764,1.86255 16.3331,1.28946 2.86546,-0.5731 23.92657,-3.7251 23.92657,-3.7251 0,0 12.46473,4.01164 13.39601,4.58473 0.93127,0.57309 7.52182,1.21782 7.52182,1.21782 z"
       id="path2599"
       inkscape:connector-curvature="0"
       transform="matrix(1.1086884,0,0,1.1086884,-26.93026,17.683764)" />
    <path
       style="display:inline;opacity:1;fill:#000000;fill-opacity:1;stroke:#000000;stroke-width:1.14618266px;stroke-linecap:butt;stroke-linejoin:miter;stroke-opacity:1;filter:url(#filter3486)"
       d="m 234.43243,407.735 12.46474,-4.01164 15.04364,2.29237 5.27747,-0.38036 13.27151,-3.29255 c 0,0 8.10472,1.06374 8.35801,1.16505 0.25327,0.10132 10.68812,5.21742 10.68812,5.21742 l -11.24533,-2.17814 c 0,0 -7.8008,0.86112 -8.10474,0.91178 -0.30392,0.0507 -12.00514,4.30564 -12.56233,4.3563 -0.55721,0.0507 -7.04099,0.10132 -7.04099,0.10132 0,0 -10.13092,-4.76154 -10.53616,-4.9135 -0.40523,-0.15196 -5.36938,-0.10132 -5.77463,-0.0507 -0.40523,0.0507 -10.28287,0.75982 -10.28287,0.75982 z"
       id="path2609"
       inkscape:connector-curvature="0"
       transform="matrix(1.1086884,0,0,1.1086884,-26.93026,17.683764)" />
    <path
       style="fill:#000000;fill-opacity:1;stroke:#000000;stroke-width:1.14618266px;stroke-linecap:butt;stroke-linejoin:miter;stroke-opacity:1;filter:url(#filter3480)"
       d="m 260.93791,387.31862 c 0.93127,-0.35818 18.41055,-3.152 18.41055,-3.152 l 14.25565,0.28655 7.09201,2.29236 8.73964,-0.14327 c 0,0 11.31855,-3.152 12.3931,-3.152 1.07455,0 21.56256,-0.0716 21.56256,-0.0716 l 11.17528,3.86837 6.16074,-0.14327 c 0,0 -6.37564,1.14618 -7.80837,1.21781 -1.43273,0.0716 -7.37855,0.14328 -8.59637,0.14328 -1.21782,0 -10.96038,-1.71928 -10.96038,-1.71928 l -10.02909,0.35819 c 0,0 -10.38728,3.43854 -11.31856,3.65345 -0.93127,0.21491 -16.11819,-0.57309 -17.47928,-0.64473 -1.3611,-0.0716 -14.61383,-2.29236 -14.61383,-2.29236 z"
       id="path2614"
       inkscape:connector-curvature="0"
       transform="matrix(1.1086884,0,0,1.1086884,-26.93026,17.683764)" />
    <path
       style="fill:#000000;fill-opacity:1;stroke:#000000;stroke-width:1.14618266px;stroke-linecap:butt;stroke-linejoin:miter;stroke-opacity:1;filter:url(#filter3474)"
       d="m 163.15419,399.067 10.24401,-2.22073 c 0,0 11.6051,1.576 12.53637,1.28945 0.93128,-0.28654 18.76875,-1.93418 19.19856,-2.00582 0.42982,-0.0716 11.6051,1.00291 12.9662,0.788 1.36109,-0.2149 18.6971,-1.576 19.05528,-1.50436 0.35819,0.0716 15.97493,5.30109 15.61674,5.44437 -0.35818,0.14327 -12.24982,-2.00582 -13.1811,-2.07746 -0.93127,-0.0716 -9.74255,0.42982 -9.74255,0.42982 0,0 -10.24401,3.36691 -10.67383,3.22364 -0.42982,-0.14327 -8.95455,-1.36109 -9.67091,-1.36109 -0.71637,0 -9.74256,-1.21782 -9.74256,-1.21782 l -8.30982,2.65055 -12.53637,1.00291 -7.6651,-2.65055 c 0,0 -11.39019,1.07454 -11.67674,1.07454 -0.28654,0 -10.38728,0.85964 -10.38728,0.85964 z"
       id="path2616"
       inkscape:connector-curvature="0"
       transform="matrix(1.1086884,0,0,1.1086884,-26.93026,17.683764)" />
    <path
       style="fill:#000000;fill-opacity:1;stroke:#000000;stroke-width:1.14618266px;stroke-linecap:butt;stroke-linejoin:miter;stroke-opacity:1;filter:url(#filter3468)"
       d="m 164.44365,416.9761 4.08327,-2.57891 10.88874,-0.14327 c 0,0 6.59055,0.57309 6.8771,0.50145 0.28654,-0.0716 15.68837,-3.36691 15.68837,-3.36691 l 8.52474,0.93127 9.16946,4.72801 c 0,0 -9.02619,-3.152 -10.0291,-3.22364 -1.00291,-0.0716 -9.95746,0.14327 -9.95746,0.14327 0,0 -12.32147,4.87128 -13.10947,4.87128 -0.788,0 -14.04074,-0.0716 -14.82874,-0.28655 -0.788,-0.21491 -6.23236,-0.93127 -6.23236,-0.93127 z"
       id="path2618"
       inkscape:connector-curvature="0"
       transform="matrix(1.1086884,0,0,1.1086884,-26.93026,17.683764)" />
    <path
       style="fill:#000000;fill-opacity:1;stroke:#000000;stroke-width:1.14618266px;stroke-linecap:butt;stroke-linejoin:miter;stroke-opacity:1;filter:url(#filter3462)"
       d="m 298.26048,400.28482 14.97201,-3.15201 11.10365,0.93128 12.10655,4.08327 17.04947,0.35819 5.22946,-1.00291 c 0,0 -8.02328,2.93709 -8.73965,2.86545 -0.71636,-0.0716 -13.10946,1.07455 -13.9691,0.93128 -0.85964,-0.14328 -9.45601,-3.00873 -9.45601,-3.00873 0,0 -6.87709,-2.43564 -8.45309,-2.36401 -1.576,0.0716 -10.96037,1.21782 -12.10656,1.00291 -1.14618,-0.21491 -7.73673,-0.64472 -7.73673,-0.64472 z"
       id="path2620"
       inkscape:connector-curvature="0"
       transform="matrix(1.1086884,0,0,1.1086884,-26.93026,17.683764)" />
    <path
       style="fill:#000000;fill-opacity:1;stroke:#000000;stroke-width:1.14618266px;stroke-linecap:butt;stroke-linejoin:miter;stroke-opacity:1;filter:url(#filter3456)"
       d="m 288.44629,415.25683 12.53637,-1.43273 c 0,0 10.45892,-1.86255 11.03201,-2.00582 0.57309,-0.14327 6.37564,1.86255 6.37564,1.86255 l 6.01746,3.58182 c 0,0 -7.59346,-2.364 -10.0291,-2.9371 -2.43563,-0.57309 -7.59346,2.07746 -7.88,2.1491 -0.28655,0.0716 -5.58764,2.00582 -6.73383,1.71927 -1.14618,-0.28654 -8.02327,-1.28945 -8.52473,-1.36109 -0.50145,-0.0716 -2.79382,-1.576 -2.79382,-1.576 z"
       id="path2622"
       inkscape:connector-curvature="0"
       transform="matrix(1.1086884,0,0,1.1086884,-26.93026,17.683764)" />
  </g>
</svg>
